<svg width="524" height="434.8" viewBox="0 0 393 326.1" class="displayed_equation" xmlns="http://www.w3.org/2000/svg">
  <defs>
    <clipPath id="svg507156959068tikz_00001b">
      <path d="M 108 151 L 235 151 L 235 294.808594 L 108 294.808594 Z M 108 151" />
    </clipPath>
    <clipPath id="svg507156959068tikz_00001g">
      <path d="M 47.507813 193 L 109 193 L 109 252 L 47.507813 252 Z M 47.507813 193" />
    </clipPath>
    <clipPath id="svg507156959068tikz_00001c">
      <path d="M 108 255 L 189 255 L 189 294.808594 L 108 294.808594 Z M 108 255" />
    </clipPath>
    <clipPath id="svg507156959068tikz_00001d">
      <path d="M 47.507813 131 L 109 131 L 109 294.808594 L 47.507813 294.808594 Z M 47.507813 131" />
    </clipPath>
    <clipPath id="svg507156959068tikz_00001e">
      <path d="M 47.507813 228 L 109 228 L 109 294.808594 L 47.507813 294.808594 Z M 47.507813 228" />
    </clipPath>
    <clipPath id="svg507156959068tikz_00001f">
      <path d="M 47.507813 164 L 109 164 L 109 223 L 47.507813 223 Z M 47.507813 164" />
    </clipPath>
    <clipPath id="svg507156959068tikz_00001a">
      <path d="M 353 89 L 377.261719 89 L 377.261719 121 L 353 121 Z M 353 89" />
    </clipPath>
    <clipPath id="svg507156959068tikz_00001h">
      <path d="M 47.507813 222 L 109 222 L 109 281 L 47.507813 281 Z M 47.507813 222" />
    </clipPath>
    <clipPath id="svg507156959068tikz_00001i">
      <path d="M 47.507813 100 L 235 100 L 235 181 L 47.507813 181 Z M 47.507813 100" />
    </clipPath>
    <clipPath id="svg507156959068tikz_00001j">
      <path d="M 47.507813 131 L 109 131 L 109 197 L 47.507813 197 Z M 47.507813 131" />
    </clipPath>
    <clipPath id="svg507156959068tikz_00001k">
      <path d="M 316 15.734375 L 334 15.734375 L 334 32 L 316 32 Z M 316 15.734375" />
    </clipPath>
    <clipPath id="svg507156959068tikz_00001l">
      <path d="M 47.507813 144 L 65 144 L 65 193 L 47.507813 193 Z M 47.507813 144" />
    </clipPath>
  </defs>
  <path d="M 376.660156 85.03125 L 256.253906 114.394531 L 256.257813 114.398438 L 256.253906 114.394531 L 255.320313 114.625 L 199.484375 241.265625 L 376.664063 198.058594 Z M 376.660156 85.03125" fill="#9d7d4b" />
  <path d="M 212.078125 212.679688 L 199.628906 241.265625 L 376.664063 198.058594 L 376.664063 178.050781 Z M 212.078125 212.679688" fill="#315456" />
  <path d="M376.664063 170.019531C375.417969 169.664063 213.765625 210.644531 213.019531 210.5625L206.839844 224.585938C206.871094 224.574219 206.910156 224.5625 206.953125 224.550781 206.972656 224.546875 206.988281 224.542969 207.007813 224.539063 206.839844 224.585938 376.664063 184.386719 376.664063 184.386719zM376.660156 140.945313L228.128906 176.285156 220.523438 193.542969 376.660156 155.3125zM376.660156 111.871094C376.660156 111.871094 243.082031 142.671875 243.058594 142.765625L234.523438 162.136719C234.523438 162.136719 375.519531 125.90625 376.660156 126.238281zM376.660156 111.871094" fill="#7c6447" />
  <path d="M 376.84375 83.898438 L 255.859375 113.402344 L 255.640625 113.898438 L 248.308594 130.53125 C 253.390625 129.578125 369.382813 104.617188 375.183594 103.203125 C 375.800781 103.050781 376.289063 102.886719 376.84375 102.679688 Z M 376.84375 83.898438" fill="#3ba031" />
  <path d="M 361.71875 71.777344 L 361.757813 71.769531 L 315.453125 34.363281 L 194.402344 63.972656 L 255.222656 113.558594 L 376.84375 83.898438 Z M 361.71875 71.777344" fill="#6cac2f" />
  <path d="M 194.402344 63.972656 L 137.777344 191.148438 L 199.628906 241.265625 L 256.007813 113.402344 Z M 194.402344 63.972656" fill="#83693d" />
  <path d="M 137.777344 191.148438 L 199.628906 241.265625 L 209.222656 219.113281 L 145.703125 172.738281 Z M 137.777344 191.148438" fill="#283f3f" />
  <path d="M 176.964844 166.566406 C 176.964844 166.566406 176.96875 166.5625 176.96875 166.5625 Z M 176.964844 166.566406" fill="#83694c" />
  <path d="M223.101563 175.835938C221.011719 174.238281 222.128906 171.753906 220.035156 170.160156 217.945313 168.5625 216.828125 171.050781 214.738281 169.453125 212.648438 167.859375 213.765625 165.375 211.675781 163.777344 209.582031 162.183594 208.464844 164.667969 206.375 163.074219 204.285156 161.476563 205.398438 158.992188 203.308594 157.398438 201.21875 155.804688 200.101563 158.289063 198.011719 156.691406 195.921875 155.097656 197.035156 152.613281 194.941406 151.015625 192.851563 149.421875 191.734375 151.90625 189.640625 150.3125 189.121094 149.914063 188.796875 149.460938 188.5625 148.980469 187.902344 147.539063 188.132813 145.84375 186.566406 144.648438 186.492188 144.589844 186.414063 144.539063 186.34375 144.488281 186.339844 144.484375 186.335938 144.480469 186.328125 144.476563 184.351563 143.164063 183.273438 145.449219 181.257813 143.921875 179.175781 142.324219 180.300781 139.84375 178.210938 138.253906 178.207031 138.25 178.210938 138.246094 178.207031 138.246094 178.203125 138.242188 178.203125 138.242188 178.203125 138.238281 176.113281 136.644531 175 139.121094 172.914063 137.535156 172.90625 137.53125 172.421875 136.886719 172.421875 136.886719 171.324219 135.300781 171.800781 133.253906 169.984375 131.867188 169.414063 131.433594 168.902344 131.300781 168.414063 131.308594 167.597656 131.253906 166.933594 131.6875 166.140625 131.730469 165.941406 131.730469 165.550781 131.6875 165.550781 131.6875 165.054688 131.582031 164.894531 131.449219 164.542969 131.183594 164.453125 131.109375 164.429688 131.039063 164.351563 130.964844L156.691406 148.128906C156.757813 148.1875 156.808594 148.226563 156.878906 148.285156 156.882813 148.285156 156.886719 148.289063 156.890625 148.289063 156.894531 148.292969 156.890625 148.296875 156.894531 148.300781 157.84375 149.023438 158.574219 148.902344 159.28125 148.703125 159.640625 148.613281 160.003906 148.492188 160.386719 148.441406 160.890625 148.390625 161.4375 148.488281 162.085938 148.980469 162.105469 149 162.089844 149.035156 162.082031 149.046875 164.257813 150.636719 163.101563 153.09375 165.160156 154.664063 165.746094 155.109375 166.265625 155.238281 166.746094 155.222656 167.515625 155.234375 168.191406 154.855469 168.945313 154.816406 169.425781 154.804688 169.9375 154.933594 170.519531 155.378906 172.609375 156.972656 171.519531 159.460938 173.609375 161.058594 175.417969 162.4375 176.507813 160.765625 178.121094 161.324219 178.34375 161.410156 178.578125 161.539063 178.824219 161.730469 178.847656 161.746094 178.828125 161.785156 178.824219 161.796875 180.996094 163.386719 179.84375 165.84375 181.902344 167.410156 182.1875 167.628906 182.453125 167.769531 182.707031 167.855469 184.359375 168.496094 185.445313 166.761719 187.273438 168.136719 188.871094 169.363281 188.601563 171.117188 189.339844 172.585938 189.558594 173.03125 189.871094 173.453125 190.355469 173.824219 192.449219 175.421875 193.566406 172.9375 195.65625 174.53125 197.746094 176.125 196.628906 178.605469 198.71875 180.199219 200.707031 181.71875 201.699219 179.53125 203.707031 180.691406L203.714844 180.675781C203.683594 180.738281 203.921875 180.8125 204.027344 180.894531 206.117188 182.488281 205.007813 184.976563 207.097656 186.574219 209.1875 188.167969 210.308594 185.683594 212.398438 187.28125 214.488281 188.875 213.371094 191.359375 215.464844 192.957031 217.453125 194.472656 218.550781 192.292969 220.453125 193.453125L227.949219 176.253906C226.140625 175.292969 225.039063 177.3125 223.101563 175.835938zM181.023438 94.023438L171.84375 114.171875C172.03125 115.117188 172.265625 116.054688 173.195313 116.792969 173.199219 116.796875 173.199219 116.800781 173.203125 116.800781 173.207031 116.804688 173.203125 116.808594 173.207031 116.808594 174.117188 117.535156 174.847656 117.410156 175.5625 117.210938 175.921875 117.117188 176.285156 116.996094 176.667969 116.945313 177.171875 116.890625 177.710938 116.988281 178.332031 117.480469 178.351563 117.5 178.332031 117.535156 178.328125 117.546875 180.414063 119.144531 179.15625 121.617188 181.128906 123.195313 181.695313 123.644531 182.203125 123.769531 182.683594 123.753906 183.445313 123.765625 184.132813 123.382813 184.886719 123.339844 185.363281 123.328125 185.863281 123.457031 186.421875 123.902344 188.425781 125.503906 187.230469 128.011719 189.234375 129.613281 190.96875 130.996094 192.125 129.3125 193.707031 129.871094 193.921875 129.957031 194.148438 130.085938 194.386719 130.273438 194.40625 130.292969 194.386719 130.332031 194.382813 130.34375 196.46875 131.9375 195.210938 134.414063 197.183594 135.988281 197.457031 136.207031 197.714844 136.347656 197.964844 136.433594 199.578125 137.070313 200.734375 135.320313 202.488281 136.703125 204.019531 137.9375 203.671875 139.703125 204.339844 141.179688 204.539063 141.628906 204.824219 142.050781 205.292969 142.421875 207.296875 144.023438 208.519531 141.519531 210.523438 143.121094 212.53125 144.722656 211.308594 147.21875 213.3125 148.820313 215.21875 150.34375 216.304688 148.140625 218.246094 149.300781L218.253906 149.285156C218.222656 149.351563 218.453125 149.421875 218.554688 149.503906 220.5625 151.105469 219.339844 153.613281 221.347656 155.214844 223.351563 156.816406 224.574219 154.3125 226.578125 155.914063 228.585938 157.515625 227.363281 160.019531 229.367188 161.621094 231.277344 163.144531 232.6875 160.972656 234.523438 162.136719L243.058594 142.765625zM181.023438 94.023438" fill="#6c573d" />
  <path d="M160.0625 153.972656C160.0625 153.972656 160.066406 153.96875 160.066406 153.96875zM164.785156 193.269531C164.785156 193.269531 164.785156 193.269531 164.789063 193.265625zM164.785156 193.269531" fill="#83694c" />
  <path d="M 208.472656 209.546875 C 206.359375 207.972656 207.46875 205.492188 205.355469 203.917969 C 203.246094 202.34375 202.136719 204.820313 200.027344 203.246094 C 197.914063 201.667969 199.023438 199.191406 196.914063 197.617188 C 194.804688 196.039063 193.695313 198.519531 191.582031 196.941406 C 189.472656 195.367188 190.582031 192.890625 188.46875 191.3125 C 186.359375 189.738281 185.25 192.214844 183.136719 190.640625 C 181.027344 189.0625 182.132813 186.585938 180.023438 185.011719 C 177.914063 183.4375 176.800781 185.914063 174.6875 184.335938 C 174.164063 183.945313 173.835938 183.5 173.597656 183.023438 C 172.925781 181.589844 173.148438 179.902344 171.566406 178.722656 C 171.492188 178.664063 171.414063 178.613281 171.339844 178.566406 C 171.335938 178.5625 171.335938 178.558594 171.328125 178.554688 C 169.328125 177.261719 168.261719 179.535156 166.222656 178.023438 C 164.125 176.449219 165.238281 173.976563 163.132813 172.40625 C 163.128906 172.402344 163.132813 172.402344 163.128906 172.398438 C 163.125 172.394531 163.125 172.394531 163.121094 172.390625 C 161.011719 170.816406 159.90625 173.289063 157.800781 171.722656 C 157.792969 171.714844 157.792969 171.707031 157.785156 171.699219 C 157.746094 171.671875 157.300781 171.074219 157.300781 171.074219 C 156.191406 169.507813 156.65625 167.464844 154.824219 166.097656 C 154.25 165.667969 153.734375 165.539063 153.242188 165.546875 C 152.421875 165.5 151.753906 165.9375 150.960938 165.980469 C 150.757813 165.980469 150.363281 165.9375 150.363281 165.9375 C 149.863281 165.839844 149.703125 165.707031 149.351563 165.445313 C 149.230469 165.355469 149.1875 165.261719 149.085938 165.164063 L 142.503906 179.902344 C 142.550781 179.9375 142.605469 179.910156 142.652344 179.945313 C 142.65625 179.945313 142.65625 179.949219 142.660156 179.949219 C 142.664063 179.953125 142.664063 179.957031 142.664063 179.960938 C 143.625 180.675781 144.355469 180.550781 145.066406 180.351563 C 145.429688 180.257813 145.792969 180.136719 146.175781 180.082031 C 146.683594 180.027344 147.890625 180.664063 147.886719 180.675781 C 150.078125 182.246094 148.933594 184.695313 151.011719 186.246094 C 151.605469 186.6875 152.125 186.8125 152.609375 186.792969 C 153.382813 186.800781 154.058594 186.421875 154.820313 186.378906 C 155.300781 186.363281 155.816406 186.488281 156.402344 186.925781 C 158.515625 188.503906 157.429688 190.984375 159.539063 192.5625 C 161.367188 193.925781 162.453125 192.253906 164.078125 192.804688 C 164.304688 192.886719 164.539063 193.015625 164.789063 193.199219 C 164.8125 193.21875 164.792969 193.257813 164.789063 193.265625 C 166.984375 194.835938 165.835938 197.285156 167.914063 198.835938 C 168.199219 199.050781 168.46875 199.1875 168.726563 199.273438 C 170.390625 199.898438 171.472656 198.167969 173.316406 199.527344 C 174.929688 200.742188 174.667969 202.484375 175.421875 203.941406 C 175.644531 204.386719 175.957031 204.804688 176.449219 205.171875 C 178.558594 206.746094 179.667969 204.269531 181.78125 205.84375 C 183.890625 207.417969 182.777344 209.890625 184.890625 211.464844 C 186.898438 212.964844 187.882813 210.785156 189.90625 211.925781 L 189.914063 211.910156 C 189.886719 211.976563 190.125 212.046875 190.230469 212.128906 C 192.34375 213.703125 191.238281 216.183594 193.347656 217.757813 C 195.460938 219.335938 196.570313 216.859375 198.679688 218.433594 C 200.792969 220.007813 199.683594 222.488281 201.796875 224.0625 C 203.804688 225.5625 204.894531 223.390625 206.816406 224.53125 L 213.019531 210.5625 C 211.191406 209.621094 210.425781 211.007813 208.472656 209.546875 Z M 208.472656 209.546875" fill="#6c573d" />
  <path d="M 147.882813 180.679688 C 147.882813 180.679688 147.886719 180.675781 147.886719 180.675781 Z M 147.882813 180.679688" fill="#83694c" />
  <path d="M 194.402344 63.972656 L 187.15625 80.253906 L 248.453125 130.53125 L 256.007813 113.402344 Z M 194.402344 63.972656" fill="#388f33" />
  <path d="M 2090.976563 1065.6875 C 2102.890625 1050.414063 2110 1031.234375 2110 1010.335938 C 2110 962.914063 2073.28125 924.046875 2026.71875 920.648438" transform="matrix(0.1,0,0,-0.1,0,326.1)" fill="none" stroke-width="6.665" stroke-linecap="round" stroke-linejoin="round" stroke="#f4f4f4" stroke-miterlimit="10" />
  <path d="M2120.429688 1129.867188C2154.492188 1101.234375 2176.132813 1058.304688 2176.132813 1010.335938 2176.132813 950.140625 2142.070313 897.914063 2092.148438 871.898438M2167.8125 1237.367188C2241.914063 1189.046875 2290.898438 1105.414063 2290.898438 1010.335938 2290.898438 977.328125 2285 945.726563 2274.179688 916.46875M2248.789063 1421C2392.695313 1340.6875 2490.039063 1186.898438 2490.039063 1010.335938 2490.039063 996.273438 2489.414063 982.367188 2488.203125 968.617188M2387.382813 1738.695313C2641.367188 1610.335938 2819.101563 1353.070313 2834.53125 1052.914063M2205.976563 1323.851563C2312.851563 1260.335938 2384.492188 1143.695313 2384.492188 1010.335938 2384.492188 986.820313 2382.265625 963.8125 2378.007813 941.507813M2308.203125 1555.765625C2504.257813 1450.53125 2637.851563 1241.898438 2637.851563 1004.789063M2459.921875 1900.453125C2763.476563 1750.179688 2979.140625 1449.203125 3009.140625 1095.296875M2549.0625 2102.09375C2914.648438 1924.632813 3177.695313 1568.96875 3225.234375 1147.992188M2856.523438 2199.359375C3179.609375 1971.703125 3405.742188 1615.648438 3460.742188 1205.414063M3185.664063 2279.75C3468.398438 2020.0625 3664.101563 1667.09375 3724.0625 1269.632813" transform="matrix(0.1,0,0,-0.1,0,326.1)" fill="none" stroke-width="6.665" stroke-linecap="round" stroke-linejoin="round" stroke="#f4f4f4" stroke-miterlimit="10" />
  <g clip-path="url(#svg507156959068tikz_00001a)">
    <path d="M 3540.507813 2366.351563 C 3625.78125 2270.84375 3702.148438 2167.210938 3768.4375 2056.78125" transform="matrix(0.1,0,0,-0.1,0,326.1)" fill="none" stroke-width="6.665" stroke-linecap="round" stroke-linejoin="round" stroke="#f4f4f4" stroke-miterlimit="10" />
  </g>
  <path d="M 331.757813 37.195313 L 334.902344 47.839844 C 335.332031 49.847656 333.875 52.175781 331.902344 52.632813 L 331.824219 52.648438 C 329.851563 53.105469 328.367188 51.453125 328.765625 49.253906 Z M 331.757813 37.195313" fill="#008e40" />
  <path d="M 331.117188 57.332031 L 332.667969 56.976563 L 332.621094 49.984375 C 332.617188 49.523438 332.273438 49.226563 331.847656 49.324219 L 331.832031 49.328125 C 331.410156 49.425781 331.066406 49.878906 331.070313 50.34375 Z M 331.117188 57.332031" fill="#d3864c" />
  <path d="M 276.605469 75.632813 L 279.75 86.273438 C 280.179688 88.285156 278.722656 90.613281 276.75 91.066406 L 276.671875 91.085938 C 274.699219 91.539063 273.214844 89.890625 273.617188 87.6875 Z M 276.605469 75.632813" fill="#008e40" />
  <path d="M 275.96875 95.769531 L 277.519531 95.410156 L 277.46875 88.421875 C 277.464844 87.957031 277.121094 87.664063 276.695313 87.761719 L 276.679688 87.765625 C 276.257813 87.863281 275.917969 88.316406 275.921875 88.777344 Z M 275.96875 95.769531" fill="#d3864c" />
  <path d="M 287.160156 66.789063 L 289.175781 73.613281 C 289.453125 74.902344 288.519531 76.394531 287.253906 76.6875 L 287.203125 76.695313 C 285.9375 76.988281 284.988281 75.933594 285.246094 74.519531 Z M 287.160156 66.789063" fill="#008e40" />
  <path d="M 286.753906 79.699219 L 287.746094 79.46875 L 287.714844 74.988281 C 287.714844 74.691406 287.492188 74.503906 287.21875 74.566406 L 287.210938 74.566406 C 286.9375 74.632813 286.71875 74.921875 286.722656 75.21875 Z M 286.753906 79.699219" fill="#d3864c" />
  <path d="M 249.691406 59.007813 L 251.710938 65.828125 C 251.984375 67.121094 251.050781 68.613281 249.785156 68.902344 L 249.734375 68.914063 C 248.472656 69.207031 247.519531 68.148438 247.777344 66.738281 Z M 249.691406 59.007813" fill="#008e40" />
  <path d="M 249.285156 71.914063 L 250.277344 71.6875 L 250.246094 67.207031 C 250.246094 66.910156 250.023438 66.722656 249.753906 66.785156 L 249.742188 66.785156 C 249.472656 66.847656 249.253906 67.140625 249.253906 67.4375 Z M 249.285156 71.914063" fill="#d3864c" />
  <path d="M 345.097656 50.1875 L 348.242188 60.832031 C 348.671875 62.84375 347.21875 65.171875 345.242188 65.625 L 345.164063 65.644531 C 343.191406 66.097656 341.710938 64.449219 342.109375 62.246094 Z M 345.097656 50.1875" fill="#008e40" />
  <path d="M 344.460938 70.324219 L 346.011719 69.96875 L 345.964844 62.976563 C 345.960938 62.515625 345.613281 62.21875 345.1875 62.316406 L 345.175781 62.320313 C 344.75 62.417969 344.410156 62.875 344.414063 63.335938 Z M 344.460938 70.324219" fill="#d3864c" />
  <path d="M 313.285156 53.367188 L 316.433594 64.007813 C 316.863281 66.019531 315.40625 68.347656 313.433594 68.800781 L 313.355469 68.820313 C 311.382813 69.273438 309.898438 67.625 310.296875 65.421875 Z M 313.285156 53.367188" fill="#008e40" />
  <path d="M 312.648438 73.503906 L 314.199219 73.144531 L 314.152344 66.15625 C 314.148438 65.691406 313.800781 65.394531 313.378906 65.492188 L 313.363281 65.496094 C 312.9375 65.597656 312.597656 66.050781 312.601563 66.511719 Z M 312.648438 73.503906" fill="#d3864c" />
  <path d="M 327.46875 66.421875 L 330.03125 75.09375 C 330.382813 76.730469 329.195313 78.628906 327.585938 79 L 327.523438 79.015625 C 325.914063 79.386719 324.707031 78.042969 325.03125 76.246094 Z M 327.46875 66.421875" fill="#008e40" />
  <path d="M 326.949219 82.828125 L 328.214844 82.539063 L 328.171875 76.84375 C 328.167969 76.46875 327.886719 76.226563 327.542969 76.304688 L 327.53125 76.308594 C 327.183594 76.386719 326.90625 76.757813 326.910156 77.136719 Z M 326.949219 82.828125" fill="#d3864c" />
  <path d="M 260.410156 65.566406 L 262.972656 74.238281 C 263.324219 75.878906 262.136719 77.773438 260.527344 78.144531 L 260.464844 78.160156 C 258.855469 78.53125 257.648438 77.1875 257.972656 75.390625 Z M 260.410156 65.566406" fill="#008e40" />
  <path d="M 259.890625 81.976563 L 261.152344 81.683594 L 261.113281 75.988281 C 261.113281 75.609375 260.828125 75.371094 260.484375 75.449219 L 260.472656 75.453125 C 260.128906 75.53125 259.847656 75.902344 259.851563 76.277344 Z M 259.890625 81.976563" fill="#d3864c" />
  <path d="M 288.972656 37.207031 L 291.535156 45.878906 C 291.886719 47.515625 290.699219 49.414063 289.089844 49.78125 L 289.027344 49.796875 C 287.417969 50.167969 286.210938 48.824219 286.535156 47.03125 Z M 288.972656 37.207031" fill="#008e40" />
  <path d="M 288.453125 53.613281 L 289.714844 53.324219 L 289.675781 47.628906 C 289.675781 47.25 289.390625 47.007813 289.046875 47.089844 L 289.035156 47.089844 C 288.6875 47.171875 288.410156 47.542969 288.414063 47.917969 Z M 288.453125 53.613281" fill="#d3864c" />
  <path d="M 353.371094 65.804688 L 355.933594 74.472656 C 356.28125 76.113281 355.097656 78.011719 353.488281 78.378906 L 353.425781 78.394531 C 351.816406 78.765625 350.609375 77.421875 350.9375 75.628906 Z M 353.371094 65.804688" fill="#008e40" />
  <path d="M 352.851563 82.210938 L 354.113281 81.921875 L 354.074219 76.222656 C 354.070313 75.847656 353.789063 75.605469 353.445313 75.6875 L 353.433594 75.6875 C 353.085938 75.769531 352.808594 76.140625 352.8125 76.515625 Z M 352.851563 82.210938" fill="#d3864c" />
  <path d="M 300.546875 74.378906 L 303.691406 85.019531 C 304.121094 87.03125 302.664063 89.359375 300.6875 89.816406 L 300.613281 89.835938 C 298.640625 90.289063 297.15625 88.640625 297.554688 86.4375 Z M 300.546875 74.378906" fill="#008e40" />
  <path d="M 299.90625 94.515625 L 301.457031 94.160156 L 301.40625 87.167969 C 301.40625 86.707031 301.058594 86.410156 300.636719 86.507813 L 300.621094 86.511719 C 300.195313 86.609375 299.855469 87.0625 299.859375 87.527344 Z M 299.90625 94.515625" fill="#d3864c" />
  <path d="M 263.378906 39.984375 L 266.519531 50.628906 C 266.953125 52.640625 265.496094 54.96875 263.523438 55.421875 L 263.445313 55.4375 C 261.472656 55.894531 259.988281 54.246094 260.386719 52.042969 Z M 263.378906 39.984375" fill="#008e40" />
  <path d="M 262.738281 60.121094 L 264.289063 59.765625 L 264.242188 52.777344 C 264.238281 52.3125 263.890625 52.015625 263.46875 52.113281 L 263.453125 52.117188 C 263.027344 52.214844 262.6875 52.671875 262.691406 53.132813 Z M 262.738281 60.121094" fill="#d3864c" />
  <path d="M 275.660156 51.21875 L 278.804688 61.863281 C 279.234375 63.871094 277.78125 66.199219 275.808594 66.65625 L 275.730469 66.671875 C 273.753906 67.128906 272.273438 65.480469 272.671875 63.277344 Z M 275.660156 51.21875" fill="#008e40" />
  <path d="M 275.023438 71.355469 L 276.574219 71 L 276.523438 64.007813 C 276.519531 63.546875 276.175781 63.25 275.753906 63.347656 L 275.738281 63.351563 C 275.3125 63.449219 274.972656 63.902344 274.976563 64.367188 Z M 275.023438 71.355469" fill="#d3864c" />
  <path d="M 297.84375 46.78125 L 300.40625 55.453125 C 300.757813 57.089844 299.570313 58.988281 297.960938 59.359375 L 297.898438 59.371094 C 296.289063 59.742188 295.082031 58.398438 295.40625 56.605469 Z M 297.84375 46.78125" fill="#008e40" />
  <path d="M 297.324219 63.1875 L 298.585938 62.898438 L 298.546875 57.203125 C 298.546875 56.824219 298.265625 56.585938 297.917969 56.664063 L 297.90625 56.664063 C 297.5625 56.746094 297.285156 57.117188 297.285156 57.492188 Z M 297.324219 63.1875" fill="#d3864c" />
  <path d="M 312.628906 28.640625 L 315.679688 38.96875 C 316.097656 40.921875 314.683594 43.179688 312.769531 43.621094 L 312.695313 43.636719 C 310.777344 44.078125 309.339844 42.480469 309.726563 40.339844 Z M 312.628906 28.640625" fill="#008e40" />
  <path d="M 312.011719 48.179688 L 313.511719 47.835938 L 313.464844 41.050781 C 313.464844 40.601563 313.128906 40.316406 312.714844 40.410156 L 312.703125 40.414063 C 312.289063 40.507813 311.960938 40.949219 311.964844 41.398438 Z M 312.011719 48.179688" fill="#d3864c" />
  <g clip-path="url(#svg507156959068tikz_00001b)">
    <path d="M 108.601563 181.785156 L 108.605469 294.808594 L 178.710938 277.714844 L 234.546875 151.070313 Z M 108.601563 181.785156" fill="#9d7d4b" />
  </g>
  <g clip-path="url(#svg507156959068tikz_00001c)">
    <path d="M 178.710938 277.714844 L 108.671875 294.808594 L 108.453125 273.980469 L 188.710938 255.027344 Z M 178.710938 277.714844" fill="#315456" />
  </g>
  <path d="M108.671875 266.273438L108.671875 280.980469C109.769531 280.15625 185.539063 261.1875 185.996094 261.0625 186.039063 261.050781 186.050781 261.042969 186.082031 261.03125L192.253906 247.011719C190.226563 246.800781 109.585938 265.558594 108.671875 266.273438zM108.6875 237.160156L108.683594 251.847656 199.75 229.988281 207.359375 212.734375zM108.703125 208.140625L108.691406 222.863281 213.695313 198.359375 222.007813 179.496094C218.152344 180.660156 109.617188 207.425781 108.703125 208.140625zM108.703125 208.140625" fill="#7c6447" />
  <g clip-path="url(#svg507156959068tikz_00001d)">
    <path d="M 108.671875 294.808594 L 108.703125 181.785156 L 61.796875 142.542969 L 61.796875 142.664063 L 47.851563 131.097656 L 47.820313 244.054688 L 94.789063 283.296875 L 94.789063 283.203125 Z M 108.671875 294.808594" fill="#83693d" />
  </g>
  <g clip-path="url(#svg507156959068tikz_00001e)">
    <path d="M 108.671875 294.808594 L 47.820313 244.054688 L 47.820313 228.511719 L 108.671875 274.144531 Z M 108.671875 294.808594" fill="#283f3f" />
  </g>
  <g clip-path="url(#svg507156959068tikz_00001f)">
    <path d="M 47.84375 164.09375 L 47.839844 178.546875 L 108.691406 222.863281 L 108.703125 208.140625 C 107.707031 207.464844 47.84375 164.09375 47.84375 164.09375 Z M 47.84375 164.09375" fill="#6c573d" />
  </g>
  <g clip-path="url(#svg507156959068tikz_00001g)">
    <path d="M 47.84375 193.078125 L 47.839844 207.53125 L 108.691406 251.847656 L 108.703125 237.125 C 107.707031 236.445313 47.84375 193.078125 47.84375 193.078125 Z M 47.84375 193.078125" fill="#6c573d" />
  </g>
  <g clip-path="url(#svg507156959068tikz_00001h)">
    <path d="M 47.84375 222.210938 L 47.839844 236.660156 L 108.691406 280.980469 L 108.703125 266.257813 C 107.707031 265.578125 47.84375 222.210938 47.84375 222.210938 Z M 47.84375 222.210938" fill="#6c573d" />
  </g>
  <path d="M 193.671875 159.949219 L 187.910156 161.355469 L 108.703125 180.671875 L 108.6875 196.199219 C 109.234375 195.933594 109.960938 195.628906 110.808594 195.421875 C 116.609375 194.007813 221.011719 168.546875 226.8125 167.132813 C 227.0625 167.070313 227.300781 167.019531 227.53125 166.976563 L 234.867188 150.347656 Z M 193.671875 159.949219" fill="#3ba031" />
  <g clip-path="url(#svg507156959068tikz_00001i)">
    <path d="M 47.738281 131.070313 L 108.703125 180.671875 L 234.867188 150.347656 L 173.484375 100.386719 Z M 47.738281 131.070313" fill="#6cac2f" />
  </g>
  <g clip-path="url(#svg507156959068tikz_00001j)">
    <path d="M 47.734375 131.070313 L 47.816406 150.007813 C 47.816406 150.015625 47.71875 150.066406 47.898438 150.066406 L 108.6875 196.199219 L 108.703125 180.671875 Z M 47.734375 131.070313" fill="#388f33" />
  </g>
  <path d="M 82.878906 133.199219 L 87.101563 132.105469 L 157.683594 113.753906 L 161.902344 112.65625 C 164.414063 112.003906 166.828125 112.472656 168.578125 113.996094 L 198.308594 139.878906 C 200.164063 141.492188 198.824219 145.300781 196.164063 145.992188 L 191.945313 147.089844 L 121.363281 165.441406 L 117.144531 166.535156 C 114.632813 167.191406 112.21875 166.699219 110.46875 165.175781 L 80.734375 139.304688 C 78.882813 137.691406 80.21875 133.890625 82.878906 133.199219 Z M 82.878906 133.199219" fill="#3da037" />
  <path d="M 120.324219 92.125 L 124.289063 96.199219 L 124.53125 128.167969 L 124.316406 128.21875 L 120.21875 124.023438 L 120.128906 110.890625 L 99.429688 115.660156 L 95.300781 97.46875 L 119.484375 91.890625 C 119.808594 91.816406 120.117188 91.902344 120.324219 92.125 Z M 120.324219 92.125" fill="#d4d4d4" />
  <path d="M 105.890625 107.839844 L 106.125 142.199219 L 99.710938 143.679688 L 95.828125 139.554688 C 95.675781 139.386719 95.589844 139.15625 95.589844 138.894531 L 95.300781 97.46875 Z M 105.890625 107.839844" fill="#b0b0b0" />
  <path d="M 100.03125 101.535156 L 123.746094 96.0625 C 124.152344 95.972656 124.484375 96.253906 124.488281 96.699219 L 124.769531 137.453125 C 124.769531 137.515625 124.761719 137.578125 124.75 137.644531 L 99.707031 101.695313 C 99.804688 101.621094 99.914063 101.5625 100.03125 101.535156 Z M 100.03125 101.535156" fill="#e6e6e6" />
  <path d="M 99.707031 101.695313 L 124.75 137.644531 C 124.675781 138.015625 124.386719 138.34375 124.039063 138.425781 L 100.324219 143.894531 C 99.917969 143.988281 99.585938 143.703125 99.585938 143.257813 L 99.304688 102.507813 C 99.300781 102.191406 99.464844 101.882813 99.707031 101.695313 Z M 99.707031 101.695313" fill="#d4d4d4" />
  <path d="M 100.03125 101.535156 L 123.746094 96.0625 C 124.152344 95.972656 124.484375 96.253906 124.488281 96.699219 L 124.769531 137.453125 C 124.769531 137.515625 124.761719 137.578125 124.75 137.644531 L 99.707031 101.695313 C 99.804688 101.621094 99.914063 101.5625 100.03125 101.535156 Z M 100.03125 101.535156" fill="#e6e6e6" />
  <path d="M 99.707031 101.695313 L 124.75 137.644531 C 124.675781 138.015625 124.386719 138.34375 124.039063 138.425781 L 100.324219 143.894531 C 99.917969 143.988281 99.585938 143.703125 99.585938 143.257813 L 99.304688 102.507813 C 99.300781 102.191406 99.464844 101.882813 99.707031 101.695313 Z M 99.707031 101.695313" fill="#d4d4d4" />
  <path d="M 100.03125 101.535156 L 123.746094 96.0625 C 124.152344 95.972656 124.484375 96.253906 124.488281 96.699219 L 124.769531 137.453125 C 124.769531 137.515625 124.761719 137.578125 124.75 137.644531 L 99.707031 101.695313 C 99.804688 101.621094 99.914063 101.5625 100.03125 101.535156 Z M 100.03125 101.535156" fill="#e6e6e6" />
  <path d="M 99.707031 101.695313 L 124.75 137.644531 C 124.675781 138.015625 124.386719 138.34375 124.039063 138.425781 L 100.324219 143.894531 C 99.917969 143.988281 99.585938 143.703125 99.585938 143.257813 L 99.304688 102.507813 C 99.300781 102.191406 99.464844 101.882813 99.707031 101.695313 Z M 99.707031 101.695313" fill="#d4d4d4" />
  <path d="M115.011719 119.117188L118.585938 118.296875C118.988281 118.199219 119.316406 117.765625 119.3125 117.320313L119.285156 113.421875C119.28125 112.976563 118.953125 112.691406 118.546875 112.785156L114.976563 113.609375C114.566406 113.703125 114.242188 114.136719 114.242188 114.582031L114.269531 118.484375C114.273438 118.925781 114.605469 119.210938 115.011719 119.117188zM105.40625 121.332031L108.976563 120.507813C109.382813 120.414063 109.710938 119.980469 109.710938 119.535156L109.683594 115.636719C109.679688 115.191406 109.347656 114.90625 108.941406 115L105.367188 115.824219C104.964844 115.917969 104.636719 116.355469 104.640625 116.796875L104.664063 120.699219C104.671875 121.144531 105 121.425781 105.40625 121.332031zM114.945313 109.796875L118.519531 108.972656C118.925781 108.878906 119.253906 108.441406 119.25 107.996094L119.222656 104.097656C119.21875 103.652344 118.886719 103.367188 118.480469 103.460938L114.910156 104.285156C114.503906 104.378906 114.175781 104.816406 114.179688 105.261719L114.207031 109.160156C114.210938 109.605469 114.542969 109.890625 114.945313 109.796875zM105.34375 112.011719L108.914063 111.1875C109.320313 111.09375 109.648438 110.65625 109.644531 110.210938L109.617188 106.3125C109.613281 105.867188 109.28125 105.585938 108.878906 105.679688L105.304688 106.5C104.898438 106.59375 104.570313 107.03125 104.574219 107.472656L104.601563 111.375C104.605469 111.820313 104.9375 112.105469 105.34375 112.011719zM115.074219 128.417969L118.648438 127.59375C119.054688 127.5 119.382813 127.066406 119.378906 126.621094L119.351563 122.71875C119.347656 122.277344 119.015625 121.992188 118.609375 122.085938L115.039063 122.910156C114.632813 123.003906 114.304688 123.4375 114.308594 123.882813L114.335938 127.785156C114.339844 128.226563 114.671875 128.511719 115.074219 128.417969zM105.472656 130.632813L109.042969 129.808594C109.449219 129.714844 109.773438 129.28125 109.773438 128.835938L109.746094 124.9375C109.742188 124.492188 109.410156 124.207031 109.003906 124.300781L105.433594 125.125C105.027344 125.21875 104.699219 125.652344 104.703125 126.097656L104.730469 130C104.734375 130.441406 105.0625 130.726563 105.472656 130.632813zM105.472656 130.632813" fill="#383838" />
  <path d="M 107.292969 135.398438 L 116.898438 133.183594 L 116.886719 131.691406 C 116.886719 131.34375 116.625 131.121094 116.308594 131.195313 L 107.855469 133.144531 C 107.535156 133.21875 107.28125 133.558594 107.28125 133.90625 Z M 107.292969 135.398438" fill="#a1a1a1" />
  <path d="M 108.5 142.007813 L 115.648438 140.359375 L 115.605469 133.480469 L 108.453125 135.128906 Z M 108.5 142.007813" fill="#383838" />
  <path d="M 161.738281 102.183594 L 166.078125 106.269531 L 161.613281 111.746094 L 131.085938 118.785156 L 131.019531 109.015625 L 161.257813 102.058594 C 161.441406 102.015625 161.617188 102.0625 161.738281 102.183594 Z M 161.738281 102.183594" fill="#9e8766" />
  <path d="M 140.53125 118.496094 L 140.636719 133.601563 L 134.945313 134.808594 L 131.074219 130.941406 L 130.921875 109.054688 Z M 140.53125 118.496094" fill="#8e795c" />
  <path d="M 165.726563 106.148438 C 165.960938 106.09375 166.152344 106.257813 166.15625 106.515625 L 166.296875 127.230469 C 166.300781 127.414063 166.199219 127.59375 166.058594 127.699219 L 135.308594 113.164063 Z M 165.726563 106.148438" fill="#ae9571" />
  <path d="M 135.167969 113.195313 L 135.308594 113.164063 L 166.058594 127.699219 C 166.003906 127.742188 165.941406 127.769531 165.882813 127.785156 L 165.878906 127.785156 L 155.832031 130.105469 L 155.40625 130.199219 L 145.359375 132.515625 L 144.9375 132.617188 L 137.015625 134.441406 L 135.316406 134.835938 C 135.082031 134.886719 134.890625 134.722656 134.886719 134.46875 L 134.746094 113.757813 C 134.742188 113.503906 134.933594 113.25 135.167969 113.195313 Z M 135.167969 113.195313" fill="#9e8766" />
  <path d="M158.125 124.851563L161.734375 124.019531C161.96875 123.964844 162.15625 123.714844 162.152344 123.460938L162.125 119.519531C162.125 119.261719 161.933594 119.097656 161.699219 119.152344L158.089844 119.984375C157.855469 120.039063 157.667969 120.289063 157.667969 120.546875L157.695313 124.484375C157.699219 124.742188 157.890625 124.90625 158.125 124.851563zM139.953125 129.042969L143.558594 128.210938C143.796875 128.15625 143.984375 127.90625 143.980469 127.648438L143.953125 123.710938C143.953125 123.453125 143.761719 123.289063 143.527344 123.34375L139.917969 124.175781C139.683594 124.226563 139.496094 124.480469 139.496094 124.734375L139.523438 128.675781C139.527344 128.933594 139.71875 129.097656 139.953125 129.042969zM148.953125 118.839844L152.558594 118.007813C152.792969 117.953125 152.980469 117.703125 152.980469 117.445313L152.953125 113.507813C152.953125 113.25 152.761719 113.085938 152.527344 113.140625L148.917969 113.972656C148.683594 114.027344 148.496094 114.277344 148.496094 114.535156L148.523438 118.476563C148.523438 118.730469 148.71875 118.894531 148.953125 118.839844zM158.070313 116.738281L161.675781 115.90625C161.910156 115.851563 162.101563 115.601563 162.097656 115.34375L162.070313 111.402344C162.070313 111.148438 161.878906 110.984375 161.644531 111.035156L158.035156 111.871094C157.800781 111.925781 157.613281 112.175781 157.613281 112.429688L157.640625 116.371094C157.644531 116.628906 157.835938 116.792969 158.070313 116.738281zM139.894531 120.929688L143.503906 120.097656C143.738281 120.042969 143.925781 119.789063 143.925781 119.535156L143.898438 115.59375C143.894531 115.339844 143.703125 115.175781 143.46875 115.226563L139.863281 116.0625C139.628906 116.113281 139.4375 116.367188 139.441406 116.621094L139.46875 120.5625C139.472656 120.820313 139.660156 120.980469 139.894531 120.929688zM139.894531 120.929688" fill="#383838" />
  <path d="M 146.558594 126.035156 L 155.046875 124.074219 L 155.035156 122.667969 C 155.035156 122.410156 154.839844 122.246094 154.605469 122.300781 L 146.972656 124.058594 C 146.734375 124.113281 146.546875 124.367188 146.546875 124.628906 Z M 146.558594 126.035156" fill="#a1a1a1" />
  <path d="M 147.625 131.875 L 153.945313 130.417969 L 153.902344 124.339844 L 147.582031 125.796875 Z M 147.625 131.875" fill="#383838" />
  <path d="M 139.375 148.433594 L 139.28125 135.316406 L 141.144531 130.890625 L 149.867188 145.011719 L 149.910156 151.246094 L 143.703125 152.679688 Z M 139.375 148.433594" fill="#c9c9c9" />
  <path d="M 143.6875 152.683594 L 165.65625 147.617188 L 165.5625 133.597656 L 143.589844 138.664063 Z M 143.6875 152.683594" fill="#e8e8e8" />
  <path d="M 139.378906 134.734375 L 140.980469 130.871094 C 141.070313 130.648438 141.257813 130.480469 141.464844 130.433594 L 162.75 125.523438 C 162.988281 125.46875 163.203125 125.589844 163.273438 125.820313 L 165.683594 133.570313 L 143.6875 138.640625 L 141.242188 130.871094 L 139.378906 135.296875 Z M 139.378906 134.734375" fill="#ae4571" />
  <path d="M149.902344 143.292969L152.09375 142.789063C152.234375 142.757813 152.347656 142.605469 152.347656 142.449219L152.332031 140.058594C152.328125 139.902344 152.214844 139.804688 152.070313 139.835938L149.882813 140.339844C149.738281 140.371094 149.625 140.523438 149.628906 140.683594L149.644531 143.074219C149.644531 143.226563 149.761719 143.328125 149.902344 143.292969zM146.5 144.078125L148.6875 143.574219C148.832031 143.542969 148.945313 143.390625 148.945313 143.234375L148.929688 140.84375C148.925781 140.6875 148.8125 140.589844 148.667969 140.621094L146.480469 141.125C146.335938 141.15625 146.222656 141.3125 146.222656 141.464844L146.238281 143.859375C146.242188 144.011719 146.359375 144.113281 146.5 144.078125zM149.929688 146.953125L152.117188 146.449219C152.261719 146.414063 152.375 146.265625 152.371094 146.109375L152.355469 143.714844C152.355469 143.5625 152.238281 143.460938 152.097656 143.496094L149.90625 144C149.765625 144.03125 149.648438 144.183594 149.652344 144.339844L149.667969 146.734375C149.671875 146.886719 149.785156 146.988281 149.929688 146.953125zM146.523438 147.738281L148.714844 147.234375C148.855469 147.203125 148.972656 147.050781 148.96875 146.894531L148.953125 144.503906C148.953125 144.347656 148.835938 144.246094 148.695313 144.277344L146.503906 144.785156C146.363281 144.816406 146.246094 144.96875 146.246094 145.125L146.265625 147.515625C146.265625 147.671875 146.382813 147.773438 146.523438 147.738281zM161.1875 140.691406L163.378906 140.1875C163.519531 140.15625 163.632813 140.003906 163.632813 139.847656L163.617188 137.453125C163.613281 137.300781 163.5 137.199219 163.355469 137.234375L161.164063 137.738281C161.023438 137.769531 160.910156 137.921875 160.910156 138.078125L160.929688 140.472656C160.929688 140.625 161.046875 140.726563 161.1875 140.691406zM157.785156 141.476563L159.972656 140.972656C160.113281 140.941406 160.230469 140.785156 160.230469 140.632813L160.214844 138.238281C160.210938 138.085938 160.097656 137.984375 159.953125 138.019531L157.761719 138.523438C157.621094 138.554688 157.507813 138.710938 157.507813 138.863281L157.523438 141.257813C157.523438 141.410156 157.640625 141.511719 157.785156 141.476563zM161.210938 144.351563L163.402344 143.847656C163.546875 143.8125 163.660156 143.660156 163.65625 143.503906L163.640625 141.113281C163.640625 140.960938 163.523438 140.859375 163.382813 140.894531L161.191406 141.398438C161.050781 141.429688 160.933594 141.582031 160.9375 141.738281L160.953125 144.128906C160.953125 144.285156 161.070313 144.382813 161.210938 144.351563zM157.808594 145.136719L159.996094 144.632813C160.140625 144.597656 160.253906 144.445313 160.253906 144.289063L160.238281 141.898438C160.234375 141.742188 160.121094 141.644531 159.976563 141.675781L157.789063 142.183594C157.644531 142.214844 157.53125 142.367188 157.53125 142.523438L157.550781 144.914063C157.550781 145.070313 157.667969 145.171875 157.808594 145.136719zM157.808594 145.136719" fill="#383838" />
  <path d="M 109.234375 155.382813 L 109.144531 142.269531 L 111.007813 137.84375 L 119.730469 151.960938 L 119.769531 158.199219 L 113.632813 159.613281 Z M 109.234375 155.382813" fill="#c9c9c9" />
  <path d="M 113.550781 159.632813 L 135.519531 154.566406 L 135.425781 140.546875 L 113.453125 145.613281 Z M 113.550781 159.632813" fill="#e8e8e8" />
  <path d="M 109.238281 141.683594 L 110.742188 137.964844 C 110.867188 137.664063 111.117188 137.429688 111.398438 137.367188 L 132.214844 132.566406 C 132.660156 132.464844 133.058594 132.6875 133.191406 133.121094 L 135.492188 140.53125 L 113.550781 145.59375 L 111.074219 137.890625 L 109.242188 142.246094 Z M 109.238281 141.683594" fill="#b91f00" />
  <path d="M119.714844 150.257813L121.90625 149.753906C122.046875 149.71875 122.160156 149.566406 122.160156 149.410156L122.144531 147.019531C122.144531 146.863281 122.027344 146.765625 121.886719 146.796875L119.695313 147.300781C119.550781 147.335938 119.4375 147.488281 119.4375 147.644531L119.457031 150.035156C119.457031 150.191406 119.574219 150.289063 119.714844 150.257813zM116.3125 151.039063L118.503906 150.535156C118.644531 150.503906 118.757813 150.351563 118.757813 150.195313L118.742188 147.804688C118.738281 147.648438 118.625 147.550781 118.480469 147.582031L116.292969 148.085938C116.148438 148.121094 116.035156 148.273438 116.035156 148.425781L116.054688 150.820313C116.054688 150.976563 116.171875 151.074219 116.3125 151.039063zM119.742188 153.914063L121.929688 153.410156C122.074219 153.378906 122.1875 153.226563 122.1875 153.070313L122.167969 150.679688C122.167969 150.523438 122.050781 150.425781 121.910156 150.457031L119.71875 150.960938C119.578125 150.992188 119.464844 151.144531 119.464844 151.300781L119.480469 153.695313C119.480469 153.847656 119.597656 153.949219 119.742188 153.914063zM116.339844 154.699219L118.527344 154.195313C118.671875 154.164063 118.785156 154.011719 118.78125 153.855469L118.765625 151.464844C118.765625 151.308594 118.648438 151.207031 118.507813 151.238281L116.316406 151.746094C116.175781 151.777344 116.0625 151.933594 116.0625 152.085938L116.078125 154.476563C116.078125 154.632813 116.195313 154.734375 116.339844 154.699219zM131 147.65625L133.1875 147.148438C133.332031 147.117188 133.445313 146.964844 133.445313 146.808594L133.429688 144.417969C133.425781 144.261719 133.3125 144.160156 133.167969 144.195313L130.980469 144.699219C130.835938 144.730469 130.722656 144.886719 130.722656 145.039063L130.738281 147.433594C130.742188 147.589844 130.855469 147.6875 131 147.65625zM127.597656 148.4375L129.785156 147.933594C129.929688 147.902344 130.042969 147.75 130.042969 147.59375L130.023438 145.199219C130.023438 145.046875 129.90625 144.945313 129.765625 144.980469L127.578125 145.484375C127.433594 145.519531 127.320313 145.671875 127.320313 145.824219L127.335938 148.21875C127.339844 148.371094 127.453125 148.472656 127.597656 148.4375zM131.023438 151.3125L133.214844 150.808594C133.355469 150.773438 133.472656 150.621094 133.46875 150.46875L133.453125 148.074219C133.453125 147.921875 133.335938 147.820313 133.195313 147.855469L131.003906 148.359375C130.863281 148.390625 130.746094 148.542969 130.746094 148.699219L130.765625 151.09375C130.765625 151.246094 130.882813 151.347656 131.023438 151.3125zM127.621094 152.097656L129.8125 151.59375C129.953125 151.5625 130.066406 151.40625 130.066406 151.253906L130.050781 148.859375C130.050781 148.707031 129.933594 148.605469 129.789063 148.636719L127.601563 149.144531C127.460938 149.175781 127.34375 149.328125 127.347656 149.484375L127.363281 151.875C127.363281 152.03125 127.480469 152.132813 127.621094 152.097656zM127.621094 152.097656" fill="#383838" />
  <path d="M 175.382813 145.800781 L 187.050781 143.109375 L 186.953125 129.179688 L 181.082031 124.996094 L 175.285156 131.871094 Z M 175.382813 145.800781" fill="#e5e5e5" />
  <path d="M 175.285156 131.9375 L 175.382813 145.800781 L 168.722656 139.890625 L 168.632813 127.1875 Z M 175.285156 131.9375" fill="#b0b0b0" />
  <path d="M 168.679688 127.175781 L 174.625 119.757813 C 174.824219 119.507813 175.132813 119.4375 175.335938 119.589844 L 186.839844 128.226563 C 186.972656 128.324219 187.046875 128.488281 187.046875 128.675781 L 187.050781 129.15625 L 181.195313 124.984375 L 177.222656 129.664063 L 175.382813 131.847656 L 175.386719 131.914063 L 174.144531 131.03125 L 174.148438 131 Z M 168.679688 127.175781" fill="#144e80" />
  <path d="M181.898438 135.710938L184.085938 135.203125C184.226563 135.171875 184.34375 135.019531 184.339844 134.863281L184.324219 132.472656C184.324219 132.316406 184.210938 132.21875 184.066406 132.25L181.875 132.753906C181.734375 132.785156 181.621094 132.941406 181.621094 133.097656L181.636719 135.488281C181.636719 135.644531 181.753906 135.742188 181.898438 135.710938zM178.492188 136.496094L180.683594 135.988281C180.824219 135.957031 180.941406 135.804688 180.9375 135.648438L180.921875 133.257813C180.921875 133.101563 180.804688 133.003906 180.660156 133.035156L178.472656 133.539063C178.332031 133.574219 178.214844 133.726563 178.21875 133.878906L178.234375 136.273438C178.234375 136.429688 178.351563 136.527344 178.492188 136.496094zM181.921875 139.367188L184.109375 138.863281C184.253906 138.832031 184.367188 138.679688 184.367188 138.523438L184.351563 136.132813C184.347656 135.976563 184.234375 135.878906 184.089844 135.910156L181.902344 136.414063C181.757813 136.449219 181.644531 136.601563 181.644531 136.753906L181.660156 139.148438C181.664063 139.304688 181.78125 139.402344 181.921875 139.367188zM178.519531 140.152344L180.707031 139.648438C180.851563 139.617188 180.964844 139.464844 180.964844 139.308594L180.945313 136.914063C180.945313 136.761719 180.828125 136.660156 180.6875 136.691406L178.5 137.199219C178.355469 137.230469 178.242188 137.382813 178.242188 137.539063L178.257813 139.929688C178.261719 140.089844 178.378906 140.1875 178.519531 140.152344zM178.519531 140.152344" fill="#383838" />
  <path d="M70.714844 114.371094C71.089844 114.335938 71.472656 114.144531 71.828125 114.023438 72.210938 113.890625 72.59375 113.757813 72.976563 113.628906 73.730469 113.375 74.488281 113.128906 75.246094 112.886719 76.777344 112.40625 78.316406 111.933594 79.863281 111.503906 79.988281 111.46875 79.9375 111.277344 79.808594 111.308594 78.246094 111.683594 76.695313 112.085938 75.15625 112.5625 74.398438 112.796875 73.636719 113.039063 72.882813 113.296875 72.5 113.425781 72.117188 113.558594 71.738281 113.695313 71.386719 113.820313 70.957031 113.917969 70.648438 114.132813 70.554688 114.195313 70.578125 114.382813 70.714844 114.371094zM84.035156 112.246094C83 112.492188 81.96875 112.722656 80.9375 112.988281 79.898438 113.257813 78.863281 113.542969 77.828125 113.835938 75.777344 114.421875 73.730469 115.035156 71.699219 115.683594 71.140625 115.859375 70.582031 116.035156 70.027344 116.222656 69.445313 116.421875 68.878906 116.648438 68.308594 116.886719 68.132813 116.960938 68.195313 117.230469 68.390625 117.179688 70.453125 116.644531 72.472656 115.9375 74.511719 115.308594 76.550781 114.675781 78.601563 114.078125 80.652344 113.492188 81.804688 113.160156 82.949219 112.808594 84.101563 112.488281 84.253906 112.445313 84.191406 112.210938 84.035156 112.246094zM184.308594 66.953125C184.84375 66.132813 185.394531 65.324219 185.96875 64.527344 186.0625 64.398438 185.84375 64.226563 185.742188 64.355469 183.605469 67.097656 181.742188 70.007813 180.144531 73.09375 179.921875 73.523438 179.710938 73.960938 179.503906 74.398438 179.398438 74.617188 179.296875 74.835938 179.195313 75.054688 179.09375 75.277344 178.960938 75.503906 178.921875 75.742188 178.894531 75.902344 179.097656 76.078125 179.226563 75.921875 179.492188 75.609375 179.636719 75.167969 179.816406 74.800781 180.007813 74.414063 180.210938 74.03125 180.40625 73.648438 180.800781 72.875 181.207031 72.113281 181.632813 71.355469 182.472656 69.859375 183.371094 68.390625 184.308594 66.953125zM189.339844 64.273438C189 64.699219 188.679688 65.125 188.371094 65.574219 188.070313 66.015625 187.78125 66.46875 187.496094 66.917969 186.90625 67.855469 186.320313 68.796875 185.75 69.746094 184.625 71.621094 183.535156 73.523438 182.484375 75.441406 182.191406 75.980469 181.898438 76.519531 181.613281 77.0625 181.46875 77.335938 181.328125 77.609375 181.1875 77.878906 181.042969 78.152344 180.886719 78.429688 180.804688 78.726563 180.761719 78.882813 180.976563 79.03125 181.089844 78.894531 181.429688 78.472656 181.652344 77.945313 181.910156 77.46875 182.164063 77 182.414063 76.53125 182.671875 76.0625 183.195313 75.101563 183.726563 74.140625 184.265625 73.191406 185.347656 71.285156 186.449219 69.394531 187.578125 67.523438 187.898438 66.996094 188.214844 66.472656 188.53125 65.949219 188.851563 65.417969 189.136719 64.882813 189.417969 64.332031 189.441406 64.285156 189.378906 64.226563 189.339844 64.273438zM333.988281 26.230469C332.726563 24.910156 331.335938 23.710938 329.992188 22.476563 328.644531 21.242188 327.292969 20.007813 325.941406 18.777344 325.183594 18.085938 324.425781 17.394531 323.671875 16.703125 323.53125 16.578125 323.324219 16.78125 323.464844 16.910156 326.144531 19.398438 328.808594 21.898438 331.492188 24.382813 332.246094 25.078125 332.992188 25.78125 333.789063 26.429688 333.925781 26.542969 334.117188 26.367188 333.988281 26.230469zM333.988281 26.230469" fill="#787878" />
  <g clip-path="url(#svg507156959068tikz_00001k)">
    <path d="M 331.871094 29.265625 C 331.386719 28.734375 330.894531 28.207031 330.398438 27.691406 C 329.390625 26.648438 328.371094 25.621094 327.328125 24.613281 C 325.242188 22.601563 323.078125 20.671875 320.855469 18.808594 C 319.605469 17.761719 318.332031 16.746094 317.039063 15.757813 C 316.929688 15.671875 316.777344 15.867188 316.886719 15.953125 C 319.140625 17.773438 321.339844 19.660156 323.476563 21.613281 C 325.605469 23.558594 327.679688 25.570313 329.683594 27.644531 C 330.242188 28.226563 330.804688 28.808594 331.359375 29.394531 C 331.921875 29.992188 332.492188 30.578125 333.078125 31.152344 C 333.222656 31.289063 333.40625 31.089844 333.292969 30.941406 C 332.835938 30.363281 332.367188 29.804688 331.871094 29.265625 Z M 331.871094 29.265625" fill="#787878" />
  </g>
  <path d="M 1982.96875 928.421875 C 1951.796875 942.523438 1930.15625 973.929688 1930.15625 1010.335938 C 1930.15625 1060.023438 1970.390625 1100.257813 2020.078125 1100.257813 C 2032.5 1100.257813 2044.335938 1097.757813 2055.078125 1093.1875" transform="matrix(0.1,0,0,-0.1,0,326.1)" fill="none" stroke-width="6.665" stroke-linecap="round" stroke-linejoin="round" stroke="#f4f4f4" stroke-miterlimit="10" />
  <path d="M1956.367188 867.835938C1901.953125 892.210938 1864.023438 946.859375 1864.023438 1010.335938 1864.023438 1096.546875 1933.90625 1166.390625 2020.078125 1166.390625 2042.148438 1166.390625 2063.125 1161.820313 2082.1875 1153.578125M2020.078125 854.28125C2012.460938 854.28125 2004.960938 854.828125 1997.617188 855.882813" transform="matrix(0.1,0,0,-0.1,0,326.1)" fill="none" stroke-width="6.665" stroke-linecap="round" stroke-linejoin="round" stroke="#f4f4f4" stroke-miterlimit="10" />
  <path d="M 1910 762.835938 C 1815.273438 805.023438 1749.257813 899.984375 1749.257813 1010.335938 C 1749.257813 1159.90625 1870.507813 1281.15625 2020.078125 1281.15625 C 2058.632813 1281.15625 2095.273438 1273.109375 2128.4375 1258.617188" transform="matrix(0.1,0,0,-0.1,0,326.1)" fill="none" stroke-width="6.665" stroke-linecap="round" stroke-linejoin="round" stroke="#f4f4f4" stroke-miterlimit="10" />
  <path d="M1829.296875 580.726563C1664.804688 653.851563 1550.117188 818.734375 1550.117188 1010.335938 1550.117188 1269.90625 1760.546875 1480.296875 2020.078125 1480.296875 2087.1875 1480.296875 2151.015625 1466.234375 2208.789063 1440.882813M1470.3125 407.953125C1306.992188 557.09375 1204.53125 771.742188 1204.53125 1010.335938 1204.53125 1209.671875 1276.054688 1392.289063 1394.804688 1533.96875" transform="matrix(0.1,0,0,-0.1,0,326.1)" fill="none" stroke-width="6.665" stroke-linecap="round" stroke-linejoin="round" stroke="#f4f4f4" stroke-miterlimit="10" />
  <path d="M 1871.523438 677.484375 C 1744.296875 734.359375 1655.664063 862.015625 1655.664063 1010.335938 C 1655.664063 1211.625 1818.828125 1374.75 2020.078125 1374.75 C 2070.390625 1374.75 2118.320313 1364.554688 2161.914063 1346.117188" transform="matrix(0.1,0,0,-0.1,0,326.1)" fill="none" stroke-width="6.665" stroke-linecap="round" stroke-linejoin="round" stroke="#f4f4f4" stroke-miterlimit="10" />
  <path d="M1723.046875 468.5C1531.875 573.539063 1402.304688 776.820313 1402.304688 1010.335938 1402.304688 1351.546875 1678.867188 1628.148438 2020.078125 1628.148438 2108.398438 1628.148438 2192.34375 1609.242188 2268.320313 1575.296875M1086.054688 1347.210938C1100.898438 1388.382813 1118.359375 1428.265625 1138.28125 1466.664063M1270.15625 359.984375C1190.78125 451.390625 1127.890625 557.445313 1086.015625 673.578125M1085.585938 673.265625C1025.039063 756.117188 986.953125 876.390625 986.953125 1010.257813 986.953125 1144.125 1025.039063 1264.398438 1085.585938 1347.210938M973.320313 408.34375C876.445313 544.515625 815.703125 739.75 815.703125 956.664063 815.703125 1184.90625 882.96875 1389.203125 988.90625 1525.882813M693.984375 640.179688C669.609375 744.554688 656.367188 856.9375 656.367188 974.085938 656.367188 1239.359375 724.375 1480.414063 835.234375 1658.773438" transform="matrix(0.1,0,0,-0.1,0,326.1)" fill="none" stroke-width="6.665" stroke-linecap="round" stroke-linejoin="round" stroke="#f4f4f4" stroke-miterlimit="10" />
  <g clip-path="url(#svg507156959068tikz_00001l)">
    <path d="M 479.296875 1336.273438 C 510.3125 1515.140625 566.328125 1678.5 641.210938 1817.210938" transform="matrix(0.1,0,0,-0.1,0,326.1)" fill="none" stroke-width="6.665" stroke-linecap="round" stroke-linejoin="round" stroke="#f4f4f4" stroke-miterlimit="10" />
  </g>
  <path d="M 205.042969 225.621094 C 205.042969 227.300781 203.683594 228.65625 202.007813 228.65625 C 200.332031 228.65625 198.972656 227.300781 198.972656 225.621094 C 198.972656 223.945313 200.332031 222.589844 202.007813 222.589844 C 203.683594 222.589844 205.042969 223.945313 205.042969 225.621094 Z M 205.042969 225.621094" fill="#f4f4f4" />
  <path d="M174.699219 214.109375L163.480469 239.1875 159.753906 237.519531C158.480469 236.949219 157.042969 237.878906 157.039063 239.273438L156.996094 262.828125C156.996094 265.402344 160.039063 266.769531 161.960938 265.050781L179.523438 249.335938C180.5625 248.40625 180.300781 246.714844 179.027344 246.144531L175.257813 244.457031 186.480469 219.378906C187.023438 218.160156 186.476563 216.730469 185.257813 216.183594L177.894531 212.890625C176.675781 212.34375 175.246094 212.890625 174.699219 214.109375zM253.003906 187.3125L264.222656 162.234375 267.953125 163.902344C269.222656 164.472656 270.660156 163.546875 270.664063 162.148438L270.703125 138.59375C270.710938 136.019531 267.664063 134.65625 265.742188 136.371094L248.179688 152.089844C247.140625 153.019531 247.40625 154.710938 248.679688 155.28125L252.445313 156.96875 241.226563 182.046875C240.679688 183.265625 241.226563 184.695313 242.445313 185.238281L249.808594 188.535156C251.027344 189.078125 252.457031 188.53125 253.003906 187.3125zM253.003906 187.3125" fill="#ffe500" />
  <path d="M 1789.21875 2391.039063 L 1646.171875 2457.757813" transform="matrix(0.1,0,0,-0.1,0,326.1)" fill="none" stroke-width="7.97" stroke-linejoin="round" stroke="#000" stroke-miterlimit="10" />
  <path d="M 182.433594 88.632813 L 178.339844 84.441406 L 179.101563 87.078125 L 176.589844 88.191406" />
  <path d="M 1824.335938 2374.671875 L 1783.398438 2416.585938 L 1791.015625 2390.21875 L 1765.898438 2379.085938 Z M 1824.335938 2374.671875" transform="matrix(0.1,0,0,-0.1,0,326.1)" fill="none" stroke-width="7.989" stroke="#000" stroke-miterlimit="10" />
  <path d="M114.503906 77.5L114.4375 75.671875 108.503906 75.671875 108.503906 76.003906C109.304688 76.003906 109.585938 76.160156 109.585938 76.929688L109.585938 81.707031C109.585938 82.53125 109.40625 82.664063 108.503906 82.664063L108.503906 83 111.769531 83 111.769531 82.664063C110.898438 82.664063 110.609375 82.53125 110.609375 81.773438L110.609375 79.429688 111.925781 79.429688C112.886719 79.429688 113.109375 79.574219 113.109375 80.476563L113.488281 80.476563 113.488281 77.890625 113.109375 77.890625C113.109375 78.792969 112.886719 78.996094 111.925781 78.996094L110.609375 78.996094 110.609375 76.171875 112.382813 76.171875C113.84375 76.171875 113.945313 76.441406 114.148438 77.5L114.503906 77.5M117.734375 82.308594C117.804688 82.796875 117.914063 83.054688 118.40625 83.054688 118.976563 83.054688 119.242188 82.820313 119.609375 82.285156L119.445313 82.109375C119.289063 82.273438 119.132813 82.386719 118.917969 82.386719 118.683594 82.386719 118.585938 82.296875 118.585938 81.839844L118.585938 79.308594C118.585938 78.148438 118.128906 77.589844 116.910156 77.589844 115.695313 77.589844 114.945313 78.191406 114.945313 78.816406 114.945313 79.183594 115.191406 79.351563 115.414063 79.351563 115.726563 79.351563 115.90625 79.183594 115.90625 78.839844 115.90625 78.167969 116.019531 77.933594 116.65625 77.933594 117.324219 77.933594 117.65625 78.304688 117.65625 79.273438L117.65625 79.765625C116.699219 80.066406 114.722656 80.355469 114.722656 81.828125 114.722656 82.542969 115.191406 83.078125 116.050781 83.078125 116.765625 83.078125 117.167969 82.765625 117.691406 82.308594zM117.65625 81.972656C117.277344 82.285156 116.878906 82.464844 116.507813 82.464844 116.03125 82.464844 115.707031 82.117188 115.707031 81.5625 115.707031 80.691406 116.640625 80.390625 117.65625 80.132813L117.65625 81.972656M125.726563 82.496094L125.613281 82.496094C125.078125 82.496094 124.945313 82.421875 124.945313 81.761719L124.945313 77.667969 124.675781 77.667969 123.113281 77.835938 123.113281 78.148438C123.828125 78.148438 124.015625 78.203125 124.015625 78.792969L124.015625 81.726563C123.570313 82.117188 123.214844 82.398438 122.644531 82.398438 122.066406 82.398438 121.640625 82.0625 121.640625 80.925781L121.640625 77.667969 121.394531 77.667969 119.957031 77.835938 119.957031 78.148438C120.558594 78.15625 120.714844 78.203125 120.714844 78.804688L120.714844 81.070313C120.714844 82.585938 121.25 83.109375 122.175781 83.109375 122.890625 83.109375 123.414063 82.777344 124.007813 82.195313L124.0625 82.195313 124.0625 83.054688 124.308594 83.054688 125.726563 82.796875 125.726563 82.496094M129 82.675781C128.195313 82.675781 128.140625 82.519531 128.140625 81.871094L128.140625 75.121094 127.863281 75.121094 126.390625 75.515625 126.390625 75.816406C126.390625 75.816406 126.558594 75.792969 126.746094 75.792969 127.027344 75.792969 127.214844 75.816406 127.214844 76.273438L127.214844 81.871094C127.214844 82.496094 127.171875 82.675781 126.433594 82.675781L126.433594 83 129 83 129 82.675781M132.46875 81.996094C132.191406 82.308594 132.046875 82.453125 131.6875 82.453125 131.253906 82.453125 131.152344 82.1875 131.152344 81.394531L131.152344 78.191406 132.414063 78.191406 132.414063 77.722656 131.152344 77.722656 131.164063 76.195313 130.871094 76.195313C130.472656 77.140625 130.136719 77.609375 129.613281 77.933594L129.613281 78.191406 130.226563 78.191406 130.226563 81.707031C130.226563 82.710938 130.550781 83.109375 131.296875 83.109375 132.011719 83.109375 132.246094 82.777344 132.679688 82.175781L132.46875 81.996094M135.835938 81.171875L135.867188 83.089844 136.101563 83.089844 136.339844 82.832031 136.359375 82.832031C136.648438 82.953125 136.984375 83.121094 137.632813 83.121094 138.636719 83.121094 139.507813 82.71875 139.507813 81.671875 139.507813 80.847656 138.960938 80.433594 137.945313 79.898438 137.007813 79.417969 136.640625 79.140625 136.640625 78.703125 136.640625 78.203125 137.027344 77.96875 137.542969 77.96875 138.222656 77.96875 138.636719 78.292969 138.882813 79.351563L139.179688 79.351563 139.148438 77.644531 138.925781 77.644531 138.734375 77.878906 138.726563 77.878906C138.445313 77.746094 138.109375 77.589844 137.554688 77.589844 136.59375 77.589844 135.847656 78.078125 135.847656 78.996094 135.847656 79.820313 136.304688 80.210938 137.320313 80.722656 138.355469 81.238281 138.570313 81.449219 138.570313 81.972656 138.570313 82.496094 138.167969 82.710938 137.609375 82.710938 136.78125 82.710938 136.359375 82.320313 136.125 81.171875L135.835938 81.171875M144.351563 81.347656C143.851563 81.996094 143.46875 82.273438 142.746094 82.273438 141.597656 82.273438 141.050781 81.316406 141.050781 79.953125 141.050781 78.671875 141.597656 78.003906 142.5 78.003906 143.460938 78.003906 143.089844 79.273438 143.917969 79.273438 144.230469 79.273438 144.386719 79.09375 144.386719 78.773438 144.386719 78.125 143.738281 77.589844 142.6875 77.589844 141.082031 77.589844 140.167969 78.726563 140.167969 80.476563 140.167969 82.03125 141.003906 83.109375 142.398438 83.109375 143.59375 83.109375 144.140625 82.410156 144.5625 81.503906L144.351563 81.347656M148.234375 82.308594C148.304688 82.796875 148.414063 83.054688 148.90625 83.054688 149.476563 83.054688 149.742188 82.820313 150.109375 82.285156L149.945313 82.109375C149.789063 82.273438 149.632813 82.386719 149.417969 82.386719 149.183594 82.386719 149.085938 82.296875 149.085938 81.839844L149.085938 79.308594C149.085938 78.148438 148.628906 77.589844 147.410156 77.589844 146.195313 77.589844 145.445313 78.191406 145.445313 78.816406 145.445313 79.183594 145.691406 79.351563 145.914063 79.351563 146.226563 79.351563 146.40625 79.183594 146.40625 78.839844 146.40625 78.167969 146.519531 77.933594 147.15625 77.933594 147.824219 77.933594 148.15625 78.304688 148.15625 79.273438L148.15625 79.765625C147.199219 80.066406 145.222656 80.355469 145.222656 81.828125 145.222656 82.542969 145.691406 83.078125 146.550781 83.078125 147.265625 83.078125 147.667969 82.765625 148.191406 82.308594zM148.15625 81.972656C147.777344 82.285156 147.378906 82.464844 147.007813 82.464844 146.53125 82.464844 146.207031 82.117188 146.207031 81.5625 146.207031 80.691406 147.140625 80.390625 148.15625 80.132813L148.15625 81.972656M152.242188 77.621094L151.972656 77.621094 150.589844 77.957031 150.589844 78.269531C150.589844 78.269531 150.714844 78.246094 150.9375 78.246094 151.339844 78.246094 151.339844 78.449219 151.339844 78.851563L151.339844 81.917969C151.339844 82.542969 151.257813 82.675781 150.523438 82.675781L150.523438 83 153.3125 83 153.3125 82.675781C152.476563 82.675781 152.265625 82.566406 152.265625 81.863281L152.265625 79.320313C152.53125 78.871094 152.890625 78.402344 153.144531 78.402344 153.28125 78.402344 153.503906 78.78125 153.871094 78.78125 154.117188 78.78125 154.359375 78.605469 154.359375 78.179688 154.359375 77.800781 154.148438 77.554688 153.714844 77.554688 153.179688 77.554688 152.84375 77.945313 152.273438 78.773438L152.242188 78.773438 152.242188 77.621094M156.464844 77.621094L156.183594 77.621094 154.78125 77.933594 154.78125 78.257813C154.78125 78.257813 154.992188 78.234375 155.136719 78.234375 155.503906 78.234375 155.558594 78.382813 155.558594 78.804688L155.558594 84.328125C155.558594 84.953125 155.449219 85.140625 154.746094 85.140625L154.746094 85.453125 157.570313 85.453125 157.570313 85.132813C156.699219 85.132813 156.484375 84.984375 156.484375 84.261719L156.484375 82.796875 156.53125 82.796875C156.855469 83.023438 157.234375 83.109375 157.65625 83.109375 158.996094 83.109375 160.101563 81.984375 160.101563 80.085938 160.101563 78.628906 159.332031 77.589844 158.226563 77.589844 157.570313 77.589844 157.03125 77.933594 156.496094 78.558594L156.464844 78.558594zM156.484375 79.027344C156.699219 78.75 157.179688 78.347656 157.769531 78.347656 158.59375 78.347656 159.085938 78.996094 159.085938 80.398438 159.085938 81.953125 158.492188 82.675781 157.714844 82.675781 157.089844 82.675781 156.699219 82.175781 156.484375 81.941406L156.484375 79.027344" />
  <path d="M 819.414063 652.835938 L 693.710938 503.070313" transform="matrix(0.1,0,0,-0.1,0,326.1)" fill="none" stroke-width="7.97" stroke-linejoin="round" stroke="#000" stroke-miterlimit="10" />
  <path d="M 84.433594 257.84375 L 79.316406 260.71875 L 82.070313 260.664063 L 82.492188 263.382813" />
  <path d="M 844.335938 682.5625 L 793.164063 653.8125 L 820.703125 654.359375 L 824.921875 627.171875 Z M 844.335938 682.5625" transform="matrix(0.1,0,0,-0.1,0,326.1)" fill="none" stroke-width="8.006" stroke="#000" stroke-miterlimit="10" />
  <path d="M20.242188 277.179688L19.851563 278.292969 19.792969 278.292969 19.359375 277.125 18.007813 273.808594C17.875 273.484375 17.820313 273.273438 17.820313 273.128906 17.820313 272.714844 18.289063 272.703125 18.578125 272.703125L18.578125 272.371094 15.589844 272.371094 15.589844 272.703125C16.191406 272.703125 16.4375 272.972656 16.757813 273.71875L19.3125 279.757813 19.761719 279.757813 22.058594 274.15625C22.59375 272.894531 22.738281 272.703125 23.363281 272.703125L23.363281 272.371094 21.023438 272.371094 21.023438 272.703125C21.546875 272.703125 21.769531 272.78125 21.769531 273.085938 21.769531 273.285156 21.710938 273.464844 21.648438 273.632813L20.242188 277.179688M25.015625 271.96875C24.625 271.96875 24.382813 272.257813 24.382813 272.59375 24.382813 272.9375 24.640625 273.230469 25.015625 273.230469 25.40625 273.230469 25.652344 272.9375 25.652344 272.59375 25.652344 272.257813 25.40625 271.96875 25.015625 271.96875zM26.265625 279.386719C25.519531 279.386719 25.464844 279.21875 25.464844 278.574219L25.464844 274.320313 25.171875 274.320313 23.769531 274.632813 23.769531 274.957031C23.769531 274.957031 23.890625 274.9375 24.046875 274.9375 24.371094 274.9375 24.539063 274.980469 24.539063 275.460938L24.539063 278.574219C24.539063 279.210938 24.503906 279.386719 23.757813 279.386719L23.757813 279.699219 26.265625 279.699219 26.265625 279.386719M28.417969 271.824219L28.128906 271.824219 26.6875 272.214844 26.6875 272.527344C26.6875 272.527344 26.824219 272.503906 27 272.503906 27.425781 272.503906 27.492188 272.59375 27.492188 273.09375L27.492188 279.367188C27.761719 279.511719 28.40625 279.8125 29.355469 279.8125 30.90625 279.8125 32.03125 278.761719 32.03125 276.765625 32.03125 275.316406 31.273438 274.289063 30.171875 274.289063 29.421875 274.289063 28.84375 274.769531 28.453125 275.238281L28.417969 275.238281zM28.417969 275.726563C28.617188 275.460938 29.109375 275.046875 29.679688 275.046875 30.738281 275.046875 31.015625 276.050781 31.015625 277.125 31.015625 278.359375 30.617188 279.355469 29.554688 279.355469 28.964844 279.355469 28.628906 279.085938 28.417969 278.828125L28.417969 275.726563M34.441406 274.320313L34.171875 274.320313 32.789063 274.65625 32.789063 274.96875C32.789063 274.96875 32.914063 274.945313 33.136719 274.945313 33.539063 274.945313 33.539063 275.148438 33.539063 275.550781L33.539063 278.617188C33.539063 279.242188 33.460938 279.375 32.722656 279.375L32.722656 279.699219 35.511719 279.699219 35.511719 279.375C34.675781 279.375 34.464844 279.265625 34.464844 278.5625L34.464844 276.019531C34.730469 275.570313 35.089844 275.101563 35.34375 275.101563 35.480469 275.101563 35.703125 275.484375 36.070313 275.484375 36.316406 275.484375 36.5625 275.304688 36.5625 274.882813 36.5625 274.5 36.351563 274.257813 35.914063 274.257813 35.378906 274.257813 35.042969 274.648438 34.476563 275.472656L34.441406 275.472656 34.441406 274.320313M39.9375 279.007813C40.003906 279.5 40.113281 279.757813 40.605469 279.757813 41.175781 279.757813 41.441406 279.523438 41.8125 278.984375L41.644531 278.808594C41.488281 278.976563 41.332031 279.085938 41.117188 279.085938 40.882813 279.085938 40.785156 278.996094 40.785156 278.539063L40.785156 276.007813C40.785156 274.847656 40.328125 274.289063 39.109375 274.289063 37.894531 274.289063 37.148438 274.890625 37.148438 275.515625 37.148438 275.882813 37.390625 276.050781 37.617188 276.050781 37.929688 276.050781 38.105469 275.882813 38.105469 275.539063 38.105469 274.867188 38.21875 274.632813 38.855469 274.632813 39.523438 274.632813 39.859375 275.003906 39.859375 275.972656L39.859375 276.464844C38.898438 276.765625 36.921875 277.054688 36.921875 278.527344 36.921875 279.242188 37.390625 279.777344 38.25 279.777344 38.964844 279.777344 39.367188 279.464844 39.890625 279.007813zM39.859375 278.671875C39.476563 278.984375 39.078125 279.164063 38.710938 279.164063 38.230469 279.164063 37.90625 278.820313 37.90625 278.261719 37.90625 277.390625 38.84375 277.089844 39.859375 276.832031L39.859375 278.671875M45.167969 278.695313C44.890625 279.007813 44.746094 279.152344 44.386719 279.152344 43.953125 279.152344 43.851563 278.886719 43.851563 278.09375L43.851563 274.890625 45.113281 274.890625 45.113281 274.421875 43.851563 274.421875 43.863281 272.894531 43.574219 272.894531C43.171875 273.84375 42.835938 274.3125 42.3125 274.632813L42.3125 274.890625 42.925781 274.890625 42.925781 278.40625C42.925781 279.410156 43.25 279.8125 43.996094 279.8125 44.710938 279.8125 44.945313 279.476563 45.382813 278.875L45.167969 278.695313M47.015625 271.96875C46.625 271.96875 46.382813 272.257813 46.382813 272.59375 46.382813 272.9375 46.640625 273.230469 47.015625 273.230469 47.40625 273.230469 47.652344 272.9375 47.652344 272.59375 47.652344 272.257813 47.40625 271.96875 47.015625 271.96875zM48.265625 279.386719C47.519531 279.386719 47.464844 279.21875 47.464844 278.574219L47.464844 274.320313 47.171875 274.320313 45.769531 274.632813 45.769531 274.957031C45.769531 274.957031 45.890625 274.9375 46.046875 274.9375 46.371094 274.9375 46.539063 274.980469 46.539063 275.460938L46.539063 278.574219C46.539063 279.210938 46.503906 279.386719 45.757813 279.386719L45.757813 279.699219 48.265625 279.699219 48.265625 279.386719M51.476563 274.289063C49.972656 274.289063 48.980469 275.382813 48.980469 277 48.980469 278.808594 49.917969 279.8125 51.476563 279.8125 52.929688 279.8125 53.953125 278.828125 53.953125 276.957031 53.953125 275.304688 53.007813 274.289063 51.476563 274.289063zM51.433594 274.710938C52.425781 274.710938 52.929688 275.640625 52.929688 277.011719 52.929688 278.828125 52.4375 279.367188 51.523438 279.367188 50.5625 279.375 50.015625 278.628906 50.015625 276.855469 50.015625 275.425781 50.585938 274.710938 51.433594 274.710938M59.765625 276.273438C59.765625 274.992188 59.285156 274.289063 58.273438 274.289063 57.570313 274.289063 57.078125 274.691406 56.476563 275.226563L56.429688 275.226563 56.441406 274.320313 56.183594 274.320313 54.769531 274.648438 54.769531 274.96875C54.769531 274.96875 54.878906 274.945313 55.070313 274.945313 55.371094 274.945313 55.539063 275.035156 55.539063 275.4375L55.539063 278.574219C55.539063 279.199219 55.503906 279.386719 54.757813 279.386719L54.757813 279.699219 57.3125 279.699219 57.3125 279.386719C56.507813 279.386719 56.464844 279.199219 56.464844 278.574219L56.464844 275.707031C56.796875 275.40625 57.210938 275.003906 57.8125 275.003906 58.316406 275.003906 58.839844 275.214844 58.839844 276.554688L58.839844 278.574219C58.839844 279.199219 58.804688 279.386719 58.015625 279.386719L58.015625 279.699219 60.59375 279.699219 60.59375 279.386719C59.84375 279.386719 59.765625 279.199219 59.765625 278.574219L59.765625 276.273438M61.234375 277.871094L61.269531 279.789063 61.503906 279.789063 61.738281 279.53125 61.757813 279.53125C62.050781 279.65625 62.382813 279.824219 63.03125 279.824219 64.035156 279.824219 64.90625 279.421875 64.90625 278.371094 64.90625 277.546875 64.359375 277.132813 63.34375 276.597656 62.40625 276.117188 62.039063 275.839844 62.039063 275.40625 62.039063 274.902344 62.429688 274.667969 62.941406 274.667969 63.621094 274.667969 64.035156 274.992188 64.28125 276.050781L64.582031 276.050781 64.546875 274.34375 64.324219 274.34375 64.136719 274.578125 64.125 274.578125C63.84375 274.445313 63.511719 274.289063 62.953125 274.289063 61.992188 274.289063 61.246094 274.78125 61.246094 275.695313 61.246094 276.519531 61.703125 276.910156 62.71875 277.421875 63.757813 277.9375 63.96875 278.148438 63.96875 278.671875 63.96875 279.199219 63.566406 279.410156 63.007813 279.410156 62.183594 279.410156 61.757813 279.019531 61.523438 277.871094L61.234375 277.871094M116.976563 300.71875C116.773438 299.875 116.742188 299.605469 117.773438 299.359375L117.699219 299.03125 114.585938 299.777344 114.660156 300.101563C115.660156 299.863281 115.777344 300.113281 115.980469 300.957031L117.003906 305.234375C117.234375 306.199219 117.1875 306.347656 116.214844 306.582031L116.289063 306.90625 119.40625 306.160156 119.328125 305.835938C118.351563 306.070313 118.230469 305.949219 118 304.992188L117.515625 302.964844 121.074219 302.113281 121.558594 304.140625C121.785156 305.085938 121.734375 305.257813 120.769531 305.492188L120.847656 305.816406 123.953125 305.070313 123.871094 304.746094C122.886719 304.984375 122.773438 304.847656 122.546875 303.90625L121.523438 299.628906C121.320313 298.773438 121.289063 298.515625 122.320313 298.269531L122.246094 297.945313 119.140625 298.6875 119.21875 299.011719C120.21875 298.773438 120.332031 299.019531 120.535156 299.867188L120.972656 301.6875 117.414063 302.542969 116.976563 300.71875M127.582031 303.527344C127.761719 303.988281 127.929688 304.210938 128.40625 304.097656 128.960938 303.964844 129.164063 303.675781 129.398438 303.070313L129.195313 302.933594C129.082031 303.132813 128.957031 303.277344 128.75 303.328125 128.523438 303.382813 128.402344 303.320313 128.296875 302.875L127.707031 300.410156C127.4375 299.28125 126.863281 298.847656 125.679688 299.128906 124.496094 299.414063 123.910156 300.171875 124.054688 300.78125 124.140625 301.140625 124.417969 301.242188 124.632813 301.191406 124.9375 301.117188 125.074219 300.914063 124.992188 300.578125 124.839844 299.929688 124.890625 299.671875 125.507813 299.523438 126.160156 299.367188 126.570313 299.648438 126.796875 300.59375L126.914063 301.070313C126.050781 301.589844 124.195313 302.328125 124.539063 303.761719 124.707031 304.457031 125.289063 304.867188 126.121094 304.667969 126.816406 304.503906 127.132813 304.105469 127.539063 303.539063zM127.425781 303.21875C127.132813 303.613281 126.78125 303.878906 126.421875 303.964844 125.957031 304.078125 125.5625 303.8125 125.433594 303.273438 125.230469 302.425781 126.070313 301.914063 126.996094 301.429688L127.425781 303.21875M134.023438 299.117188C133.722656 297.871094 133.09375 297.300781 132.105469 297.535156 131.421875 297.699219 131.039063 298.203125 130.578125 298.867188L130.53125 298.875 130.335938 297.996094 130.085938 298.054688 128.78125 298.699219 128.855469 299.015625C128.855469 299.015625 128.960938 298.96875 129.144531 298.921875 129.4375 298.851563 129.621094 298.898438 129.714844 299.289063L130.445313 302.339844C130.589844 302.945313 130.601563 303.140625 129.871094 303.3125L129.945313 303.617188 132.429688 303.023438 132.359375 302.71875C131.578125 302.90625 131.492188 302.730469 131.34375 302.125L130.679688 299.335938C130.933594 298.964844 131.242188 298.476563 131.828125 298.335938 132.3125 298.21875 132.875 298.304688 133.1875 299.605469L133.65625 301.570313C133.800781 302.179688 133.8125 302.371094 133.042969 302.554688L133.117188 302.859375 135.621094 302.257813 135.546875 301.953125C134.820313 302.128906 134.703125 301.960938 134.554688 301.355469L134.023438 299.117188M136.8125 299.871094C136.394531 300.382813 136.121094 300.929688 136.21875 301.320313 136.289063 301.625 136.597656 301.859375 137.011719 301.957031L137.023438 302C136.570313 302.703125 136.367188 303.144531 136.453125 303.5 136.59375 304.097656 137.164063 304.59375 138.582031 304.253906 139.949219 303.925781 141.4375 303.042969 141.089844 301.589844 140.789063 300.339844 139.738281 300.546875 138.371094 300.875 137.371094 301.113281 137.0625 301.070313 136.984375 300.746094 136.941406 300.5625 137.023438 300.132813 137.09375 299.953125 137.398438 299.984375 137.71875 299.976563 138.066406 299.890625 139.207031 299.617188 139.835938 298.792969 139.59375 297.78125 139.464844 297.242188 139.136719 296.9375 138.933594 296.757813L138.921875 296.703125 139.949219 296.492188 139.808594 295.90625 138.425781 296.320313C138.425781 296.320313 137.871094 296.164063 137.15625 296.335938 136.007813 296.609375 135.355469 297.488281 135.617188 298.574219 135.785156 299.277344 136.214844 299.671875 136.804688 299.847656zM137.171875 296.742188C137.867188 296.578125 138.398438 297.070313 138.609375 297.949219 138.859375 298.980469 138.527344 299.378906 137.984375 299.507813 137.28125 299.679688 136.785156 299.234375 136.5625 298.300781 136.34375 297.390625 136.609375 296.878906 137.171875 296.742188zM137.304688 301.976563C137.457031 301.941406 137.664063 301.902344 138.535156 301.707031 139.265625 301.542969 140.421875 301.242188 140.609375 302.023438 140.71875 302.492188 140.34375 303.179688 139.0625 303.484375 137.957031 303.75 137.359375 303.558594 137.210938 302.929688 137.15625 302.703125 137.171875 302.433594 137.304688 301.976563M140.972656 293.105469C140.59375 293.195313 140.421875 293.535156 140.5 293.859375 140.578125 294.195313 140.898438 294.417969 141.265625 294.328125 141.648438 294.238281 141.816406 293.898438 141.738281 293.5625 141.660156 293.238281 141.351563 293.015625 140.972656 293.105469zM143.914063 300.03125C143.1875 300.203125 143.097656 300.050781 142.945313 299.421875L141.957031 295.289063 141.671875 295.359375 140.378906 295.988281 140.453125 296.304688C140.453125 296.304688 140.570313 296.253906 140.71875 296.21875 141.035156 296.140625 141.207031 296.144531 141.320313 296.609375L142.042969 299.640625C142.191406 300.257813 142.199219 300.4375 141.472656 300.613281L141.546875 300.917969 143.988281 300.332031 143.914063 300.03125M148.722656 295.617188C148.421875 294.371094 147.792969 293.800781 146.804688 294.035156 146.121094 294.199219 145.738281 294.703125 145.277344 295.367188L145.234375 295.375 145.035156 294.496094 144.785156 294.554688 143.480469 295.199219 143.554688 295.515625C143.554688 295.515625 143.660156 295.46875 143.84375 295.421875 144.136719 295.351563 144.320313 295.398438 144.414063 295.789063L145.144531 298.839844C145.289063 299.445313 145.300781 299.640625 144.574219 299.8125L144.648438 300.117188 147.132813 299.523438 147.058594 299.21875C146.277344 299.40625 146.191406 299.230469 146.046875 298.625L145.378906 295.835938C145.632813 295.464844 145.941406 294.976563 146.527344 294.835938 147.015625 294.71875 147.574219 294.804688 147.886719 296.105469L148.355469 298.070313C148.503906 298.679688 148.511719 298.871094 147.742188 299.054688L147.816406 299.359375 150.320313 298.757813 150.246094 298.453125C149.523438 298.628906 149.402344 298.460938 149.257813 297.855469L148.722656 295.617188M151.410156 296.371094C150.992188 296.882813 150.722656 297.429688 150.816406 297.820313 150.890625 298.125 151.199219 298.359375 151.609375 298.457031L151.621094 298.5C151.171875 299.203125 150.96875 299.644531 151.054688 300 151.195313 300.597656 151.761719 301.09375 153.183594 300.753906 154.550781 300.425781 156.035156 299.542969 155.6875 298.089844 155.390625 296.839844 154.339844 297.046875 152.96875 297.375 151.972656 297.613281 151.664063 297.570313 151.585938 297.246094 151.542969 297.0625 151.621094 296.632813 151.695313 296.453125 152 296.484375 152.320313 296.476563 152.667969 296.390625 153.804688 296.117188 154.433594 295.292969 154.191406 294.28125 154.0625 293.742188 153.738281 293.4375 153.535156 293.257813L153.519531 293.203125 154.546875 292.992188 154.40625 292.40625 153.027344 292.820313C153.027344 292.820313 152.472656 292.664063 151.757813 292.835938 150.609375 293.109375 149.957031 293.988281 150.21875 295.074219 150.386719 295.777344 150.8125 296.171875 151.40625 296.347656zM151.773438 293.242188C152.46875 293.078125 153 293.570313 153.210938 294.449219 153.457031 295.480469 153.128906 295.878906 152.585938 296.007813 151.878906 296.179688 151.382813 295.734375 151.160156 294.800781 150.941406 293.890625 151.210938 293.378906 151.773438 293.242188zM151.90625 298.476563C152.054688 298.441406 152.265625 298.402344 153.136719 298.207031 153.867188 298.042969 155.019531 297.742188 155.207031 298.523438 155.320313 298.992188 154.945313 299.679688 153.664063 299.984375 152.558594 300.25 151.960938 300.058594 151.808594 299.429688 151.753906 299.203125 151.773438 298.933594 151.90625 298.476563M165.441406 289.6875L163.5625 290.136719 163.636719 290.453125C164.039063 290.355469 164.261719 290.371094 164.308594 290.578125 164.355469 290.761719 164.335938 290.929688 164.339844 290.984375L164.0625 293.621094 163.996094 294.300781 163.929688 294.316406 163.585938 293.734375 162.136719 291.570313C162.046875 291.417969 161.964844 291.277344 161.933594 291.148438 161.890625 290.972656 162 290.84375 162.414063 290.746094L162.339844 290.429688 160.070313 290.972656 160.144531 291.289063C160.621094 291.175781 160.804688 291.222656 161.234375 291.867188L161.429688 292.164063 161.121094 294.324219 161.046875 295.007813 160.96875 295.027344 160.621094 294.445313 159.105469 292.273438C159.003906 292.125 158.917969 292.019531 158.882813 291.875 158.84375 291.703125 158.960938 291.570313 159.394531 291.46875L159.320313 291.152344 156.988281 291.710938 157.0625 292.027344C157.539063 291.914063 157.730469 291.992188 158.171875 292.597656L160.78125 296.300781 161.28125 296.179688 161.792969 292.71875 161.839844 292.707031 163.742188 295.589844 164.265625 295.464844 164.882813 290.910156C164.964844 290.296875 165.09375 290.105469 165.515625 290.003906L165.441406 289.6875M169.582031 293.425781C169.761719 293.890625 169.929688 294.113281 170.40625 294 170.960938 293.867188 171.164063 293.574219 171.398438 292.96875L171.195313 292.832031C171.082031 293.035156 170.957031 293.179688 170.75 293.226563 170.523438 293.28125 170.402344 293.21875 170.296875 292.773438L169.707031 290.3125C169.4375 289.183594 168.863281 288.746094 167.679688 289.03125 166.496094 289.3125 165.910156 290.074219 166.054688 290.679688 166.140625 291.039063 166.417969 291.144531 166.632813 291.09375 166.9375 291.019531 167.074219 290.816406 166.992188 290.480469 166.839844 289.828125 166.890625 289.574219 167.507813 289.425781 168.160156 289.269531 168.570313 289.550781 168.796875 290.496094L168.914063 290.972656C168.050781 291.488281 166.195313 292.230469 166.539063 293.664063 166.707031 294.355469 167.289063 294.769531 168.121094 294.570313 168.816406 294.402344 169.132813 294.003906 169.539063 293.4375zM169.425781 293.121094C169.132813 293.511719 168.78125 293.78125 168.421875 293.867188 167.957031 293.976563 167.5625 293.714844 167.433594 293.171875 167.230469 292.328125 168.070313 291.816406 168.996094 291.328125L169.425781 293.121094M174.347656 292.710938C173.566406 292.898438 173.476563 292.757813 173.324219 292.128906L171.753906 285.5625 171.480469 285.628906 170.140625 286.351563 170.210938 286.644531C170.210938 286.644531 170.367188 286.585938 170.550781 286.539063 170.820313 286.476563 171.011719 286.453125 171.117188 286.898438L172.421875 292.34375C172.566406 292.953125 172.566406 293.136719 171.851563 293.308594L171.925781 293.621094 174.421875 293.023438 174.347656 292.710938M177.445313 291.910156C176.664063 292.097656 176.574219 291.957031 176.421875 291.328125L174.851563 284.765625 174.578125 284.828125 173.238281 285.550781 173.308594 285.84375C173.308594 285.84375 173.46875 285.785156 173.652344 285.742188 173.921875 285.675781 174.109375 285.652344 174.21875 286.097656L175.523438 291.546875C175.667969 292.152344 175.667969 292.335938 174.949219 292.507813L175.023438 292.820313 177.523438 292.226563 177.445313 291.910156M288.945313 227.960938L288.457031 226.195313 282.683594 227.578125 282.761719 227.902344C283.542969 227.714844 283.851563 227.804688 284.03125 228.550781L285.140625 233.195313C285.335938 234 285.191406 234.171875 284.3125 234.382813L284.390625 234.707031 287.570313 233.945313 287.492188 233.621094C286.644531 233.824219 286.332031 233.757813 286.15625 233.023438L285.609375 230.742188 286.890625 230.4375C287.824219 230.214844 288.074219 230.300781 288.285156 231.179688L288.652344 231.09375 288.050781 228.574219 287.679688 228.664063C287.890625 229.542969 287.722656 229.789063 286.789063 230.015625L285.507813 230.320313 284.851563 227.574219 286.578125 227.164063C287.996094 226.820313 288.15625 227.058594 288.601563 228.042969L288.945313 227.960938M291.539063 227.367188C290.074219 227.71875 289.363281 229.011719 289.742188 230.585938 290.160156 232.34375 291.304688 233.101563 292.828125 232.738281 294.234375 232.398438 295.003906 231.207031 294.570313 229.382813 294.183594 227.777344 293.027344 227.011719 291.539063 227.367188zM291.59375 227.789063C292.5625 227.558594 293.265625 228.34375 293.582031 229.675781 294.007813 231.445313 293.65625 232.082031 292.765625 232.292969 291.835938 232.527344 291.128906 231.929688 290.714844 230.203125 290.382813 228.8125 290.769531 227.988281 291.59375 227.789063M297.140625 226.066406C295.675781 226.417969 294.964844 227.710938 295.339844 229.285156 295.761719 231.042969 296.90625 231.800781 298.425781 231.4375 299.835938 231.101563 300.605469 229.90625 300.167969 228.085938 299.785156 226.476563 298.628906 225.710938 297.140625 226.066406zM297.195313 226.492188C298.160156 226.257813 298.863281 227.042969 299.183594 228.375 299.605469 230.144531 299.253906 230.78125 298.363281 230.992188 297.433594 231.226563 296.726563 230.628906 296.316406 228.902344 295.984375 227.515625 296.371094 226.6875 297.195313 226.492188M304.144531 228.863281C303.945313 229.230469 303.839844 229.40625 303.492188 229.488281 303.070313 229.589844 302.910156 229.351563 302.726563 228.582031L301.976563 225.46875 303.203125 225.175781 303.097656 224.71875 301.871094 225.011719 301.523438 223.523438 301.242188 223.59375C301.074219 224.605469 300.855469 225.140625 300.421875 225.578125L300.480469 225.828125 301.078125 225.683594 301.898438 229.101563C302.132813 230.078125 302.539063 230.394531 303.265625 230.21875 303.960938 230.054688 304.109375 229.671875 304.394531 228.984375L304.144531 228.863281M311.640625 222.6875L309.761719 223.136719 309.839844 223.453125C310.238281 223.355469 310.460938 223.371094 310.507813 223.578125 310.554688 223.761719 310.535156 223.929688 310.539063 223.984375L310.265625 226.621094 310.195313 227.300781 310.132813 227.316406 309.785156 226.734375 308.339844 224.570313C308.246094 224.417969 308.164063 224.277344 308.132813 224.148438 308.09375 223.972656 308.199219 223.84375 308.613281 223.746094L308.539063 223.429688 306.269531 223.972656 306.34375 224.289063C306.820313 224.175781 307.003906 224.222656 307.433594 224.867188L307.632813 225.160156 307.324219 227.324219 307.246094 228.007813 307.167969 228.027344 306.824219 227.445313 305.304688 225.273438C305.203125 225.125 305.117188 225.019531 305.085938 224.878906 305.042969 224.703125 305.160156 224.570313 305.59375 224.46875L305.519531 224.152344 303.1875 224.710938 303.261719 225.027344C303.738281 224.910156 303.929688 224.992188 304.371094 225.597656L306.980469 229.300781 307.480469 229.179688 307.992188 225.71875 308.039063 225.707031 309.945313 228.589844 310.464844 228.464844 311.082031 223.910156C311.164063 223.296875 311.292969 223.105469 311.714844 223.003906L311.640625 222.6875M315.78125 226.425781C315.960938 226.890625 316.128906 227.113281 316.605469 227 317.160156 226.867188 317.363281 226.574219 317.601563 225.96875L317.394531 225.832031C317.28125 226.035156 317.15625 226.179688 316.949219 226.226563 316.722656 226.28125 316.601563 226.21875 316.496094 225.773438L315.90625 223.3125C315.636719 222.183594 315.0625 221.746094 313.878906 222.03125 312.695313 222.3125 312.109375 223.074219 312.253906 223.679688 312.339844 224.039063 312.617188 224.144531 312.835938 224.09375 313.140625 224.019531 313.273438 223.816406 313.195313 223.480469 313.039063 222.828125 313.089844 222.574219 313.710938 222.425781 314.359375 222.269531 314.773438 222.550781 314.996094 223.496094L315.113281 223.972656C314.25 224.488281 312.398438 225.230469 312.738281 226.664063 312.90625 227.355469 313.488281 227.769531 314.320313 227.570313 315.015625 227.402344 315.335938 227.003906 315.738281 226.4375zM315.628906 226.121094C315.332031 226.511719 314.980469 226.78125 314.621094 226.867188 314.15625 226.976563 313.761719 226.714844 313.632813 226.171875 313.429688 225.328125 314.269531 224.816406 315.199219 224.328125L315.628906 226.121094M320.648438 225.609375C319.867188 225.796875 319.773438 225.65625 319.621094 225.03125L318.050781 218.464844 317.78125 218.527344 316.4375 219.253906 316.507813 219.546875C316.507813 219.546875 316.667969 219.484375 316.851563 219.441406 317.121094 219.375 317.3125 219.351563 317.417969 219.796875L318.722656 225.246094C318.867188 225.851563 318.867188 226.035156 318.148438 226.207031L318.226563 226.523438 320.722656 225.925781 320.648438 225.609375M323.648438 224.910156C322.867188 225.097656 322.773438 224.957031 322.621094 224.328125L321.050781 217.765625 320.78125 217.828125 319.4375 218.550781 319.507813 218.84375C319.507813 218.84375 319.667969 218.785156 319.851563 218.742188 320.121094 218.675781 320.3125 218.652344 320.417969 219.097656L321.722656 224.546875C321.867188 225.152344 321.867188 225.335938 321.148438 225.507813L321.226563 225.820313 323.722656 225.226563 323.648438 224.910156" />
  <path d="M 1942.421875 704.164063 L 2085.46875 637.445313" transform="matrix(0.1,0,0,-0.1,0,326.1)" fill="none" stroke-width="7.97" stroke-linejoin="round" stroke="#000" stroke-miterlimit="10" />
  <path d="M 190.730469 254.046875 L 194.824219 258.238281 L 194.0625 255.601563 L 196.574219 254.488281" />
  <path d="M 1907.304688 720.53125 L 1948.242188 678.617188 L 1940.625 704.984375 L 1965.742188 716.117188 Z M 1907.304688 720.53125" transform="matrix(0.1,0,0,-0.1,0,326.1)" fill="none" stroke-width="7.989" stroke="#000" stroke-miterlimit="10" />
  <path d="M219.101563 260.800781L219.039063 258.96875 213.101563 258.96875 213.101563 259.304688C213.90625 259.304688 214.183594 259.460938 214.183594 260.230469L214.183594 265.007813C214.183594 265.832031 214.003906 265.964844 213.101563 265.964844L213.101563 266.300781 216.371094 266.300781 216.371094 265.964844C215.5 265.964844 215.210938 265.832031 215.210938 265.074219L215.210938 262.730469 216.527344 262.730469C217.484375 262.730469 217.710938 262.875 217.710938 263.777344L218.089844 263.777344 218.089844 261.191406 217.710938 261.191406C217.710938 262.09375 217.484375 262.296875 216.527344 262.296875L215.210938 262.296875 215.210938 259.472656 216.984375 259.472656C218.445313 259.472656 218.546875 259.742188 218.746094 260.800781L219.101563 260.800781M222.335938 265.609375C222.402344 266.097656 222.515625 266.355469 223.007813 266.355469 223.574219 266.355469 223.84375 266.121094 224.210938 265.585938L224.042969 265.40625C223.886719 265.574219 223.730469 265.6875 223.519531 265.6875 223.285156 265.6875 223.183594 265.597656 223.183594 265.140625L223.183594 262.609375C223.183594 261.445313 222.726563 260.890625 221.511719 260.890625 220.296875 260.890625 219.546875 261.492188 219.546875 262.117188 219.546875 262.484375 219.792969 262.652344 220.015625 262.652344 220.328125 262.652344 220.507813 262.484375 220.507813 262.140625 220.507813 261.46875 220.617188 261.234375 221.253906 261.234375 221.921875 261.234375 222.257813 261.601563 222.257813 262.574219L222.257813 263.0625C221.296875 263.367188 219.324219 263.65625 219.324219 265.128906 219.324219 265.84375 219.792969 266.378906 220.652344 266.378906 221.367188 266.378906 221.765625 266.066406 222.292969 265.609375zM222.257813 265.273438C221.878906 265.585938 221.476563 265.765625 221.109375 265.765625 220.628906 265.765625 220.304688 265.417969 220.304688 264.859375 220.304688 263.992188 221.242188 263.6875 222.257813 263.433594L222.257813 265.273438M230.324219 265.796875L230.214844 265.796875C229.679688 265.796875 229.542969 265.71875 229.542969 265.0625L229.542969 260.96875 229.273438 260.96875 227.714844 261.132813 227.714844 261.445313C228.429688 261.445313 228.617188 261.503906 228.617188 262.09375L228.617188 265.027344C228.171875 265.417969 227.8125 265.695313 227.246094 265.695313 226.664063 265.695313 226.242188 265.363281 226.242188 264.226563L226.242188 260.96875 225.996094 260.96875 224.554688 261.132813 224.554688 261.445313C225.160156 261.457031 225.316406 261.503906 225.316406 262.105469L225.316406 264.371094C225.316406 265.886719 225.851563 266.410156 226.777344 266.410156 227.492188 266.410156 228.015625 266.078125 228.605469 265.496094L228.664063 265.496094 228.664063 266.355469 228.90625 266.355469 230.324219 266.097656 230.324219 265.796875M233.5 265.976563C232.695313 265.976563 232.640625 265.820313 232.640625 265.171875L232.640625 258.421875 232.363281 258.421875 230.890625 258.8125 230.890625 259.117188C230.890625 259.117188 231.058594 259.09375 231.246094 259.09375 231.527344 259.09375 231.714844 259.117188 231.714844 259.574219L231.714844 265.171875C231.714844 265.796875 231.671875 265.976563 230.933594 265.976563L230.933594 266.300781 233.5 266.300781 233.5 265.976563M237.070313 265.296875C236.789063 265.609375 236.644531 265.753906 236.289063 265.753906 235.851563 265.753906 235.753906 265.484375 235.753906 264.695313L235.753906 261.492188 237.011719 261.492188 237.011719 261.023438 235.753906 261.023438 235.765625 259.496094 235.472656 259.496094C235.070313 260.441406 234.738281 260.910156 234.214844 261.234375L234.214844 261.492188 234.828125 261.492188 234.828125 265.007813C234.828125 266.007813 235.148438 266.410156 235.898438 266.410156 236.609375 266.410156 236.84375 266.078125 237.28125 265.476563L237.070313 265.296875" />
</svg>